{"glyphs":{"0":{"ha":778,"x_min":0,"x_max":0,"o":"m 465 835 b 563 706 509 808 541 765 b 603 469 589 632 603 553 b 599 401 603 450 601 427 b 519 160 588 298 561 218 b 388 86 483 111 439 86 b 247 159 330 86 283 110 b 206 233 230 181 217 205 b 182 317 196 260 188 288 b 170 400 176 345 172 373 b 167 493 168 427 167 458 b 182 623 167 528 172 571 b 206 707 188 651 195 679 b 245 782 216 735 229 760 b 303 835 261 804 281 822 b 384 856 326 849 353 856 b 465 835 415 856 442 849 z m 389 -12 b 641 152 500 -12 585 42 b 708 474 686 239 708 347 b 641 795 708 601 686 708 b 389 960 585 905 500 960 b 137 795 277 960 193 905 b 69 474 92 708 69 601 b 137 152 69 347 92 239 b 389 -12 193 42 277 -12 z "},"1":{"ha":399,"x_min":0,"x_max":0,"o":"m 206 0 l 303 0 l 303 956 l 69 931 l 69 846 l 206 846 z "},"2":{"ha":854,"x_min":0,"x_max":0,"o":"m 88 0 l 753 0 l 753 97 l 322 97 l 651 424 b 743 644 713 485 743 558 b 649 867 743 733 712 807 b 424 960 586 929 510 960 b 192 863 333 960 256 927 b 104 631 130 799 100 722 l 203 631 b 262 790 197 689 217 742 b 419 860 305 837 358 860 b 574 797 480 860 532 839 b 639 646 617 755 639 705 b 576 493 639 586 618 535 z "},"3":{"ha":722,"x_min":0,"x_max":0,"o":"m 495 10 b 597 77 534 27 567 49 b 690 300 659 138 690 212 b 595 524 690 388 659 463 b 369 619 536 582 460 614 l 328 594 l 624 944 l 115 944 l 115 847 l 426 847 l 140 514 l 214 454 b 372 521 258 499 311 521 b 528 456 433 521 485 499 b 593 301 572 413 593 362 b 527 149 593 242 571 192 b 457 102 507 129 484 114 b 360 85 430 91 398 85 b 246 123 322 85 284 97 b 165 226 208 148 181 183 l 71 194 b 188 44 93 133 132 82 b 275 1 215 26 244 12 b 380 -14 306 -9 341 -14 b 495 10 418 -14 457 -6 z "},"4":{"ha":840,"x_min":0,"x_max":0,"o":"m 554 839 l 554 293 l 193 293 z m 656 193 l 775 193 l 775 293 l 656 293 l 654 944 l 518 944 l 21 193 l 554 193 l 554 0 l 656 0 z "},"5":{"ha":764,"x_min":0,"x_max":0,"o":"m 249 594 l 313 847 l 654 847 l 654 944 l 239 944 l 131 521 l 236 474 b 380 518 276 503 324 518 b 526 453 436 518 485 496 b 590 299 569 408 590 357 b 525 146 590 238 569 187 b 455 99 505 126 481 111 b 358 82 428 88 396 82 b 243 121 319 82 281 95 b 163 222 205 147 178 181 l 68 192 b 185 41 91 129 130 79 b 369 -17 242 3 303 -17 b 597 78 459 -17 535 15 b 690 306 659 142 690 217 b 599 526 690 394 660 467 b 499 592 570 554 537 576 b 381 617 461 609 421 617 b 249 594 340 617 296 609 z "},"6":{"ha":711,"x_min":0,"x_max":0,"o":"m 358 515 b 512 450 418 515 469 494 b 575 296 554 407 575 356 b 511 144 575 238 554 187 b 357 82 469 103 418 82 b 201 147 297 82 245 103 b 136 300 158 189 136 240 b 201 451 136 359 158 410 b 272 498 222 471 245 486 b 358 515 299 509 328 515 z m 674 303 b 576 528 674 394 641 469 b 344 615 516 582 439 611 l 317 597 l 606 944 l 478 944 l 108 499 b 38 300 61 442 38 376 b 131 77 38 212 69 138 b 356 -15 193 16 268 -15 b 581 76 444 -15 519 15 b 649 176 609 105 632 138 b 674 303 665 214 674 256 z "},"7":{"ha":685,"x_min":0,"x_max":0,"o":"m 219 0 l 635 940 l 42 940 l 42 843 l 483 843 l 111 0 z "},"8":{"ha":731,"x_min":0,"x_max":0,"o":"m 365 481 b 508 424 421 481 469 462 b 565 285 546 386 565 340 b 508 143 565 230 546 183 b 365 83 471 103 423 83 b 222 143 308 83 260 103 b 165 285 184 183 165 230 b 223 424 165 340 184 386 b 365 481 262 462 309 481 z m 365 864 b 481 819 411 864 449 849 b 529 707 513 789 529 752 b 481 593 529 663 513 625 b 365 546 449 562 411 546 b 250 593 320 546 281 562 b 201 707 218 625 201 663 b 250 819 201 752 218 789 b 365 864 282 849 320 864 z m 365 -14 b 584 63 452 -14 525 12 b 651 152 612 88 634 117 b 675 272 667 187 675 227 b 634 405 675 316 661 361 b 517 513 607 449 568 485 b 629 715 592 575 629 642 b 552 893 629 787 603 847 b 365 960 503 937 441 960 b 178 893 290 960 228 937 b 101 715 127 847 101 787 b 214 512 101 642 139 575 b 97 405 163 485 124 449 b 56 269 69 361 56 316 b 147 63 56 185 86 116 b 365 -14 206 12 279 -14 z "},"9":{"ha":711,"x_min":0,"x_max":0,"o":"m 353 429 b 199 494 293 429 242 451 b 136 649 157 538 136 589 b 200 800 136 707 157 757 b 354 863 242 842 293 863 b 510 798 414 863 466 841 b 575 644 553 755 575 704 b 509 493 575 586 553 536 b 439 447 489 474 466 458 b 353 429 412 435 384 429 z m 38 642 b 135 417 38 550 70 475 b 367 329 195 362 272 333 l 394 347 l 106 0 l 233 0 l 603 446 b 674 644 650 502 674 569 b 581 867 674 732 643 806 b 356 960 518 929 443 960 b 131 868 267 960 192 929 b 63 768 102 839 79 806 b 38 642 46 730 38 688 z "},"\u0000":{"ha":0,"x_min":0,"x_max":0,"o":""},"\r":{"ha":0,"x_min":0,"x_max":0,"o":""}," ":{"ha":375,"x_min":0,"x_max":0,"o":""},"!":{"ha":417,"x_min":0,"x_max":0,"o":"m 266 9 b 290 65 282 24 290 43 b 266 120 290 86 282 105 b 209 143 250 135 231 143 b 152 119 187 143 168 135 b 128 64 136 104 128 85 b 152 9 128 43 136 24 b 209 -14 168 -6 187 -14 b 266 9 231 -14 250 -6 z m 281 1042 l 136 1042 l 163 282 l 254 282 z "},"\"":{"ha":510,"x_min":0,"x_max":0,"o":"m 181 1042 l 61 1042 l 85 692 l 156 692 z m 449 1042 l 329 1042 l 354 692 l 425 692 z "},"#":{"ha":790,"x_min":0,"x_max":0,"o":"m 306 607 l 525 607 l 496 365 l 274 365 z m 600 607 l 749 607 l 749 678 l 607 678 l 640 944 l 568 954 l 533 678 l 313 678 l 346 944 l 274 954 l 240 678 l 85 678 l 85 607 l 232 607 l 200 365 l 46 365 l 46 294 l 189 294 l 153 7 l 226 -3 l 264 292 l 486 292 l 451 7 l 524 -3 l 560 292 l 710 292 l 710 365 l 569 365 z "},"$":{"ha":819,"x_min":0,"x_max":0,"o":"m 394 -97 l 471 -97 l 471 -17 b 688 57 562 -8 635 16 b 785 261 753 106 785 174 b 686 449 785 343 752 405 b 585 495 656 468 623 484 b 471 526 548 507 510 517 l 471 860 b 522 848 488 857 504 853 b 626 742 582 830 617 795 l 742 742 b 704 831 734 776 722 806 b 471 954 655 900 577 942 l 471 1042 l 394 1042 l 394 958 b 178 894 308 956 236 935 b 79 700 112 848 79 783 b 179 517 79 622 113 560 b 280 469 209 497 242 481 b 394 436 317 457 356 446 l 394 83 b 178 232 266 88 194 138 l 51 232 b 95 121 59 188 73 151 b 394 -18 157 35 256 -12 z m 394 544 b 251 603 331 561 283 581 b 190 719 210 630 190 669 b 256 830 190 767 212 804 b 394 864 294 853 340 864 z m 471 417 b 549 392 499 409 525 401 b 674 249 632 360 674 313 b 608 134 674 202 652 164 b 471 85 570 107 524 91 z "},"%":{"ha":1015,"x_min":0,"x_max":0,"o":"m 774 308 b 849 266 808 308 834 294 b 864 225 856 253 861 240 b 868 168 867 210 868 191 b 848 99 868 145 861 122 b 819 69 841 87 831 77 b 773 57 806 61 791 57 b 727 69 755 57 740 61 b 679 182 695 89 679 127 b 698 267 679 217 685 245 b 774 308 714 294 739 308 z m 289 874 b 317 844 301 866 310 856 b 332 804 324 832 329 819 b 336 745 335 789 336 770 b 317 676 336 720 330 697 b 242 635 300 649 275 635 b 166 676 207 635 182 649 b 151 717 159 688 154 702 b 147 775 149 731 147 751 b 166 844 147 800 153 823 b 195 874 173 856 183 866 b 242 886 208 882 223 886 b 289 874 261 886 277 882 z m 774 -14 b 915 55 835 -14 882 9 b 956 182 942 93 956 135 b 917 306 956 226 943 268 b 774 379 883 355 836 379 b 629 306 711 379 663 355 b 590 182 603 268 590 226 b 632 55 590 135 604 92 b 774 -14 666 9 713 -14 z m 374 0 l 756 944 l 656 944 l 276 0 z m 242 564 b 383 633 302 564 349 587 b 425 760 411 670 425 712 b 386 883 425 804 412 845 b 242 957 353 932 305 957 b 99 883 180 957 132 932 b 60 760 73 845 60 804 b 101 633 60 713 73 671 b 242 564 134 587 181 564 z "},"&":{"ha":957,"x_min":0,"x_max":0,"o":"m 365 479 l 572 214 b 527 170 558 200 543 185 b 358 83 466 112 409 83 b 237 139 311 83 271 102 b 186 264 203 176 186 217 b 254 391 186 303 209 345 b 365 479 275 411 312 441 z m 357 634 b 296 759 316 676 296 718 b 331 847 296 799 307 829 b 408 873 354 866 379 874 b 485 842 436 872 462 861 b 519 761 508 822 519 795 b 475 665 519 727 505 695 b 433 630 462 652 448 641 b 389 599 417 619 403 609 b 357 634 379 611 368 622 z m 826 368 l 747 421 l 694 354 b 640 288 677 332 659 310 l 446 536 b 501 581 463 550 482 565 b 610 763 574 641 610 702 b 552 904 610 820 591 867 b 408 958 515 940 467 958 b 261 901 347 958 298 939 b 206 755 224 862 206 814 b 306 551 206 696 239 628 b 225 492 278 531 251 511 b 90 257 135 427 90 348 b 169 60 90 178 116 113 b 256 3 193 36 222 17 b 372 -17 290 -10 329 -17 b 522 36 415 -17 465 1 b 633 132 550 54 587 86 l 736 -3 l 864 0 l 701 212 b 826 368 771 297 813 349 z "},"'":{"ha":240,"x_min":0,"x_max":0,"o":"m 181 1042 l 61 1042 l 85 692 l 156 692 z "},"(":{"ha":428,"x_min":0,"x_max":0,"o":"m 339 1042 l 244 1042 b 152 833 209 983 178 914 b 83 365 106 688 83 532 b 162 -129 83 200 110 35 b 246 -311 187 -206 215 -267 l 337 -311 b 235 -70 297 -242 263 -162 b 190 125 217 -13 202 52 b 172 364 178 198 172 278 b 191 602 172 450 178 529 b 339 1042 221 778 271 924 z "},")":{"ha":428,"x_min":0,"x_max":0,"o":"m 324 630 b 183 1042 293 802 246 939 l 89 1042 b 192 798 129 973 163 892 b 237 602 209 740 224 675 b 256 364 249 529 256 450 b 237 125 256 278 249 198 b 90 -311 207 -49 158 -195 l 182 -311 b 275 -99 213 -267 244 -196 b 324 104 294 -41 310 26 b 344 367 337 182 344 269 b 324 630 344 464 338 552 z "},"*":{"ha":736,"x_min":0,"x_max":0,"o":"m 631 808 l 593 922 l 393 817 l 428 1042 l 308 1042 l 343 817 l 143 922 l 107 808 l 328 769 l 169 615 l 267 544 l 368 740 l 469 544 l 567 615 l 408 769 z "},"+":{"ha":639,"x_min":0,"x_max":0,"o":"m 588 269 l 588 349 l 360 349 l 360 576 l 279 576 l 279 349 l 53 349 l 53 269 l 279 269 l 279 42 l 360 42 l 360 269 z "},",":{"ha":322,"x_min":0,"x_max":0,"o":"m 283 164 l 150 164 l 69 -196 l 128 -196 z "},"-":{"ha":569,"x_min":0,"x_max":0,"o":"m 518 269 l 518 349 l 53 349 l 53 269 z "},".":{"ha":371,"x_min":0,"x_max":0,"o":"m 185 -14 b 242 9 206 -14 225 -6 b 267 65 258 24 267 43 b 242 120 267 86 259 105 b 185 143 226 135 207 143 b 128 119 163 143 144 135 b 104 64 112 104 104 85 b 128 9 104 43 112 24 b 185 -14 145 -6 163 -14 z "},"/":{"ha":747,"x_min":0,"x_max":0,"o":"m 703 1042 l 599 1042 l 60 -279 l 164 -279 z "},":":{"ha":371,"x_min":0,"x_max":0,"o":"m 185 -14 b 242 9 206 -14 225 -6 b 267 65 258 24 267 43 b 242 120 267 86 259 105 b 185 143 226 135 207 143 b 128 119 163 143 144 135 b 104 64 112 104 104 85 b 128 9 104 43 112 24 b 185 -14 145 -6 163 -14 z m 185 524 b 242 547 206 524 225 531 b 267 602 258 562 267 580 b 242 658 267 624 259 642 b 185 681 226 673 207 681 b 128 657 163 681 144 673 b 104 601 112 641 104 623 b 128 547 104 580 112 562 b 185 524 145 531 163 524 z "},";":{"ha":371,"x_min":0,"x_max":0,"o":"m 185 524 b 242 547 206 524 225 531 b 267 602 258 562 267 580 b 242 658 267 624 259 642 b 185 681 226 673 207 681 b 128 657 163 681 144 673 b 104 601 112 641 104 623 b 128 547 104 580 112 562 b 185 524 145 531 163 524 z m 271 164 l 138 164 l 57 -196 l 115 -196 z "},"<":{"ha":717,"x_min":0,"x_max":0,"o":"m 654 -53 l 654 47 l 143 289 l 654 532 l 654 632 l 63 339 l 63 240 z "},"=":{"ha":639,"x_min":0,"x_max":0,"o":"m 532 140 l 532 219 l 67 219 l 67 140 z m 532 392 l 532 471 l 67 471 l 67 392 z "},">":{"ha":717,"x_min":0,"x_max":0,"o":"m 63 47 l 63 -53 l 654 240 l 654 339 l 63 632 l 63 532 l 574 289 z "},"?":{"ha":703,"x_min":0,"x_max":0,"o":"m 413 9 b 438 65 429 24 438 43 b 413 120 438 86 429 105 b 356 143 397 135 378 143 b 299 119 334 143 316 135 b 275 64 283 104 275 85 b 299 9 275 43 283 24 b 356 -14 316 -6 334 -14 b 413 9 378 -14 397 -6 z m 414 282 l 414 524 b 468 624 414 558 432 591 b 518 666 484 639 500 653 b 568 709 536 679 552 694 b 622 826 604 744 622 783 b 541 999 622 900 595 957 b 354 1056 492 1037 430 1056 b 169 1001 277 1056 215 1038 b 82 831 118 962 89 905 l 197 831 b 248 928 202 874 219 907 b 355 961 277 950 313 961 b 461 928 397 961 432 950 b 504 826 490 906 504 872 b 486 767 504 804 498 784 b 400 699 473 750 445 727 b 296 525 331 655 296 597 l 296 282 z "},"@":{"ha":765,"x_min":0,"x_max":0,"o":"m 402 251 b 382 308 389 268 382 287 b 402 365 382 328 389 347 b 462 390 416 382 435 390 b 522 365 488 390 508 382 b 542 308 535 347 542 328 b 522 251 542 287 535 268 b 462 225 508 234 488 225 b 402 251 435 225 416 234 z m 629 157 l 629 479 b 572 599 629 527 610 567 b 429 646 535 630 487 646 b 194 551 332 646 253 614 b 108 315 137 490 108 411 b 204 85 108 221 140 144 b 443 0 266 28 346 0 l 624 0 l 624 76 l 443 76 b 270 144 376 76 318 99 b 194 315 220 192 194 249 b 258 488 194 386 216 443 b 333 537 279 509 303 525 b 435 554 362 548 396 554 b 525 524 474 554 504 544 b 557 411 546 504 557 467 b 440 469 530 452 491 471 b 335 422 399 469 364 454 b 293 315 307 392 293 357 b 336 194 293 267 307 227 b 385 157 350 179 366 166 b 449 143 404 148 426 143 b 517 161 473 143 495 149 b 557 211 538 173 551 190 l 557 157 z "},"A":{"ha":857,"x_min":0,"x_max":0,"o":"m 257 347 l 429 782 l 601 347 z m 843 0 l 429 1010 l 14 0 l 119 0 l 221 257 l 636 257 l 738 0 z "},"B":{"ha":749,"x_min":0,"x_max":0,"o":"m 721 263 b 672 431 721 330 705 386 b 540 521 640 476 596 506 b 622 597 573 536 600 561 b 644 649 631 614 639 631 b 651 724 649 667 651 692 b 629 817 651 755 644 786 b 360 944 588 902 498 944 l 104 944 l 104 0 l 393 0 b 624 66 489 0 566 22 b 694 153 653 89 677 118 b 721 263 712 188 721 225 z m 554 708 b 508 594 554 657 539 619 b 387 557 478 569 437 557 l 201 557 l 201 851 l 360 851 b 554 708 489 851 554 804 z m 624 282 b 566 144 624 226 604 180 b 421 93 529 110 480 93 l 201 93 l 201 460 l 436 460 b 566 410 486 460 529 443 b 608 356 583 395 597 377 b 624 282 618 334 624 310 z "},"C":{"ha":1013,"x_min":0,"x_max":0,"o":"m 971 289 l 864 289 b 727 142 831 228 786 179 b 533 86 668 105 604 86 b 267 201 430 86 341 125 b 160 471 196 276 160 366 b 267 742 160 577 196 667 b 386 826 301 777 341 805 b 519 857 431 847 476 857 b 634 842 563 857 601 852 b 863 657 735 812 811 751 l 969 657 b 797 874 934 747 876 819 b 533 957 718 929 630 957 b 199 813 402 957 291 909 b 99 658 156 768 123 716 b 63 471 75 599 63 537 b 199 131 63 339 108 225 b 533 -14 291 34 402 -14 b 799 70 630 -14 718 14 b 971 289 878 126 936 199 z "},"D":{"ha":900,"x_min":0,"x_max":0,"o":"m 838 472 b 799 662 838 541 825 604 b 696 811 774 720 739 769 b 542 909 652 853 601 885 b 351 944 482 933 419 944 l 104 944 l 104 0 l 351 0 b 542 35 419 0 482 12 b 696 133 601 59 652 92 b 799 283 739 175 774 225 b 838 472 825 341 838 404 z m 743 472 b 629 203 743 365 705 275 b 354 97 555 132 463 97 l 201 97 l 201 847 l 354 847 b 629 742 463 847 555 812 b 743 472 705 670 743 580 z "},"E":{"ha":769,"x_min":0,"x_max":0,"o":"m 665 0 l 665 90 l 201 90 l 201 426 l 651 426 l 651 518 l 201 518 l 201 854 l 665 854 l 665 944 l 104 944 l 104 0 z "},"F":{"ha":693,"x_min":0,"x_max":0,"o":"m 665 854 l 665 944 l 104 944 l 104 0 l 201 0 l 201 426 l 651 426 l 651 518 l 201 518 l 201 854 z "},"G":{"ha":1099,"x_min":0,"x_max":0,"o":"m 1036 442 l 544 442 l 544 357 l 928 357 b 781 160 900 275 851 209 b 549 86 712 111 634 86 b 273 201 441 86 349 124 b 160 476 198 278 160 370 b 274 751 160 584 198 675 b 549 865 350 827 441 865 b 769 797 630 865 703 842 b 912 614 835 751 883 690 l 1015 614 b 838 866 984 718 925 802 b 539 963 752 930 652 963 b 360 924 479 963 419 950 b 205 820 300 899 249 864 b 101 665 161 776 126 725 b 62 476 75 606 62 543 b 101 286 62 409 75 345 b 205 131 126 227 161 175 b 360 27 249 87 300 53 b 549 -11 419 2 482 -11 b 858 100 663 -11 766 26 b 1026 383 950 174 1006 268 z "},"H":{"ha":832,"x_min":0,"x_max":0,"o":"m 201 0 l 201 422 l 631 422 l 631 0 l 728 0 l 728 944 l 631 944 l 631 519 l 201 519 l 201 944 l 104 944 l 104 0 z "},"I":{"ha":306,"x_min":0,"x_max":0,"o":"m 201 0 l 201 944 l 104 944 l 104 0 z "},"J":{"ha":507,"x_min":0,"x_max":0,"o":"m 424 233 l 424 944 l 326 944 l 326 233 b 259 107 326 174 304 132 b 122 85 221 86 175 78 b 7 126 71 91 33 105 l 7 19 b 58 -2 16 12 33 5 b 141 -14 82 -9 110 -13 b 328 33 216 -16 279 0 b 424 233 392 76 424 143 z "},"K":{"ha":658,"x_min":0,"x_max":0,"o":"m 201 0 l 201 443 l 519 0 l 644 0 l 297 472 l 644 944 l 519 944 l 201 501 l 201 944 l 104 944 l 104 0 z "},"L":{"ha":567,"x_min":0,"x_max":0,"o":"m 201 97 l 201 944 l 104 944 l 104 0 l 153 0 l 201 0 l 539 0 l 539 97 z "},"M":{"ha":1088,"x_min":0,"x_max":0,"o":"m 975 0 l 1074 0 l 854 1007 l 544 199 l 235 1007 l 14 0 l 114 0 l 260 672 l 544 -56 l 828 672 z "},"N":{"ha":836,"x_min":0,"x_max":0,"o":"m 201 696 l 732 -58 l 732 944 l 635 944 l 635 250 l 104 1004 l 104 0 l 201 0 z "},"O":{"ha":1096,"x_min":0,"x_max":0,"o":"m 936 475 b 822 200 936 368 898 276 b 547 86 746 124 655 86 b 274 200 441 86 350 124 b 160 475 198 276 160 368 b 274 749 160 581 198 673 b 547 863 350 825 441 863 b 822 749 655 863 746 825 b 936 475 898 673 936 581 z m 1033 475 b 995 664 1033 542 1021 605 b 891 818 970 723 935 775 b 736 922 847 862 795 896 b 547 960 677 947 614 960 b 359 922 481 960 418 947 b 205 818 300 896 249 862 b 101 664 161 775 126 723 b 62 475 75 605 62 542 b 101 286 62 408 75 345 b 205 131 126 227 161 175 b 359 27 249 87 300 53 b 547 -11 418 2 481 -11 b 736 27 614 -11 677 2 b 891 131 795 53 847 87 b 995 286 935 175 970 227 b 1033 475 1021 345 1033 408 z "},"P":{"ha":735,"x_min":0,"x_max":0,"o":"m 201 468 l 201 852 l 421 852 b 558 799 478 852 524 834 b 610 663 593 764 610 718 b 556 523 610 607 592 560 b 421 468 520 487 475 468 z m 707 660 b 619 866 707 743 678 812 b 407 945 561 918 490 945 l 104 945 l 104 0 l 201 0 l 201 374 l 407 374 b 619 454 491 374 562 401 b 707 660 678 509 707 577 z "},"Q":{"ha":1089,"x_min":0,"x_max":0,"o":"m 1033 471 b 995 660 1033 538 1021 600 b 891 815 970 719 935 771 b 736 919 847 859 795 893 b 547 957 677 944 614 957 b 359 919 481 957 418 944 b 205 815 300 893 249 859 b 101 660 161 771 126 719 b 62 471 75 600 62 538 b 101 283 62 404 75 341 b 205 128 126 224 161 172 b 359 24 249 84 300 50 b 547 -14 418 -1 481 -14 b 664 0 587 -14 626 -9 l 1047 0 l 1047 79 l 906 79 b 796 55 872 72 835 63 b 891 128 831 76 863 100 b 995 283 935 172 970 224 b 1033 471 1021 341 1033 404 z m 936 471 b 822 197 936 364 898 273 b 547 83 746 121 655 83 b 274 197 441 83 350 121 b 160 471 198 273 160 364 b 274 746 160 578 198 670 b 547 860 350 822 441 860 b 822 746 655 860 746 822 b 936 471 898 670 936 578 z "},"R":{"ha":756,"x_min":0,"x_max":0,"o":"m 201 467 l 201 851 l 421 851 b 558 798 478 851 524 834 b 610 662 593 762 610 717 b 556 522 610 607 592 560 b 421 467 520 485 476 467 z m 707 660 b 619 865 707 741 678 810 b 407 944 562 918 491 944 l 104 944 l 104 0 l 201 0 l 201 374 l 315 374 l 592 0 l 722 0 l 431 374 b 619 453 505 379 567 405 b 707 660 678 508 707 577 z "},"S":{"ha":797,"x_min":0,"x_max":0,"o":"m 367 445 b 615 348 489 416 572 384 b 661 252 646 323 661 291 b 637 159 661 213 653 182 b 415 71 595 100 521 71 b 166 221 267 71 184 121 l 51 221 b 415 -18 85 62 206 -18 b 649 44 508 -18 586 3 b 761 259 724 92 761 164 b 671 439 761 336 731 396 b 461 522 627 469 557 497 b 272 583 365 547 302 567 b 178 718 209 615 178 660 b 198 794 178 748 185 774 b 390 875 235 848 298 875 b 612 753 519 875 593 834 l 717 753 b 390 958 682 890 573 958 b 171 892 306 958 233 936 b 78 693 109 848 78 782 b 367 445 78 573 174 490 z "},"T":{"ha":611,"x_min":0,"x_max":0,"o":"m 28 857 l 257 857 l 257 3 l 354 3 l 354 857 l 583 857 l 583 947 l 354 947 l 257 947 l 28 947 z "},"U":{"ha":871,"x_min":0,"x_max":0,"o":"m 788 313 l 788 944 l 690 944 l 690 299 b 669 201 690 261 683 228 b 436 85 629 124 551 85 b 258 135 362 85 302 101 b 181 299 206 173 181 228 l 181 944 l 83 944 l 83 313 b 183 71 83 210 117 130 b 436 -12 246 15 331 -12 b 687 71 541 -12 625 15 b 788 313 754 130 788 210 z "},"V":{"ha":885,"x_min":0,"x_max":0,"o":"m 443 -57 l 871 944 l 765 944 l 443 183 l 119 944 l 14 944 z "},"W":{"ha":1088,"x_min":0,"x_max":0,"o":"m 854 -76 l 1074 944 l 975 944 l 828 258 l 544 1000 l 260 258 l 114 944 l 14 944 l 235 -76 l 544 746 z "},"X":{"ha":842,"x_min":0,"x_max":0,"o":"m 693 0 l 813 0 l 481 472 l 813 944 l 693 944 l 421 542 l 149 944 l 28 944 l 361 471 l 29 0 l 149 0 l 421 403 z "},"Y":{"ha":840,"x_min":0,"x_max":0,"o":"m 469 444 l 826 944 l 703 944 l 421 540 l 139 944 l 14 944 l 372 444 l 372 0 l 469 0 z "},"Z":{"ha":806,"x_min":0,"x_max":0,"o":"m 211 90 l 771 944 l 64 944 l 64 854 l 594 854 l 35 0 l 747 0 l 747 90 z "},"[":{"ha":489,"x_min":0,"x_max":0,"o":"m 388 -296 l 388 -226 l 228 -226 l 228 974 l 388 974 l 388 1042 l 136 1042 l 136 -296 z "},"\\":{"ha":747,"x_min":0,"x_max":0,"o":"m 703 -279 l 164 1042 l 60 1042 l 600 -279 z "},"]":{"ha":489,"x_min":0,"x_max":0,"o":"m 353 -296 l 353 1042 l 101 1042 l 101 974 l 261 974 l 261 -226 l 101 -226 l 101 -296 z "},"^":{"ha":813,"x_min":0,"x_max":0,"o":"m 732 476 l 478 943 l 335 943 l 82 476 l 189 476 l 407 881 l 625 476 z "},"_":{"ha":813,"x_min":0,"x_max":0,"o":"m 782 -203 l 782 -122 l 32 -122 l 32 -203 z "},"`":{"ha":258,"x_min":0,"x_max":0,"o":"m 231 1042 l 106 1240 l 0 1240 l 153 1042 z "},"a":{"ha":792,"x_min":0,"x_max":0,"o":"m 590 306 b 528 150 590 246 570 194 b 375 83 487 106 436 83 b 222 150 314 83 263 106 b 160 306 180 194 160 246 b 222 461 160 365 180 417 b 375 528 263 506 314 528 b 528 461 436 528 487 506 b 590 306 570 417 590 365 z m 688 0 l 688 611 l 590 611 l 590 507 b 573 528 585 514 579 521 b 360 625 515 593 444 625 b 147 528 275 625 204 593 b 63 306 91 465 63 391 b 147 83 63 220 91 146 b 360 -14 204 19 275 -14 b 573 83 444 -14 515 19 b 590 104 579 90 585 97 l 590 0 z "},"b":{"ha":792,"x_min":0,"x_max":0,"o":"m 201 0 l 201 104 b 219 83 207 97 213 90 b 432 -14 276 19 348 -14 b 645 83 516 -14 587 19 b 729 306 701 146 729 220 b 645 528 729 391 701 465 b 432 625 587 593 516 625 b 219 528 348 625 276 593 b 201 507 213 521 207 514 l 201 1042 l 104 1042 l 104 0 z m 632 306 b 570 150 632 246 611 194 b 417 83 529 106 478 83 b 263 150 356 83 305 106 b 201 306 222 194 201 246 b 263 461 201 365 222 417 b 417 528 305 506 356 528 b 570 461 478 528 529 506 b 632 306 611 417 632 365 z "},"c":{"ha":724,"x_min":0,"x_max":0,"o":"m 675 392 b 565 558 656 461 619 516 b 375 624 508 602 445 624 b 153 529 288 624 214 592 b 63 306 93 467 63 392 b 153 81 63 219 93 144 b 251 12 181 52 213 29 b 367 -14 289 -5 328 -14 b 471 2 406 -14 440 -9 b 669 200 569 36 635 102 l 560 200 b 483 118 541 166 516 138 b 375 87 450 98 414 87 b 224 152 316 87 265 109 b 162 306 183 195 162 246 b 224 458 162 364 183 414 b 292 505 243 478 266 493 b 385 522 318 516 349 522 b 492 486 421 522 456 510 b 569 392 527 462 553 431 z "},"d":{"ha":792,"x_min":0,"x_max":0,"o":"m 590 306 b 528 150 590 246 570 194 b 375 83 487 106 436 83 b 222 150 314 83 263 106 b 160 306 180 194 160 246 b 222 461 160 365 180 417 b 375 528 263 506 314 528 b 528 461 436 528 487 506 b 590 306 570 417 590 365 z m 688 0 l 688 1042 l 590 1042 l 590 507 b 573 528 585 514 579 521 b 360 625 515 593 444 625 b 147 528 275 625 204 593 b 63 306 91 465 63 391 b 147 83 63 220 91 146 b 360 -14 204 19 275 -14 b 573 83 444 -14 515 19 b 590 104 579 90 585 97 l 590 0 z "},"e":{"ha":757,"x_min":0,"x_max":0,"o":"m 701 319 b 605 538 701 404 669 476 b 382 628 542 598 467 628 b 156 534 294 628 219 597 b 63 308 94 472 63 396 b 156 83 63 220 94 145 b 258 15 185 55 219 32 b 397 -10 296 -1 342 -10 b 556 41 451 -10 504 7 b 674 179 609 75 648 121 l 563 179 b 483 112 541 150 515 128 b 382 87 451 96 417 87 b 240 139 330 87 283 105 b 164 268 199 173 173 216 l 701 268 z m 599 351 l 165 351 b 194 423 171 377 181 401 b 382 531 240 495 303 531 b 520 481 434 531 480 514 b 599 351 561 446 587 403 z "},"f":{"ha":474,"x_min":0,"x_max":0,"o":"m 432 951 l 432 1042 l 363 1042 b 216 991 294 1042 245 1025 b 172 847 187 957 172 909 l 172 611 l 49 611 l 49 521 l 172 521 l 172 0 l 269 0 l 269 521 l 432 521 l 432 611 l 269 611 l 269 875 b 285 929 269 896 275 914 b 349 951 295 944 316 951 z "},"g":{"ha":800,"x_min":0,"x_max":0,"o":"m 599 306 b 537 150 599 246 578 194 b 383 83 495 106 444 83 b 231 150 324 83 273 106 b 168 306 189 194 168 246 b 231 461 168 366 189 417 b 383 528 273 506 324 528 b 537 461 444 528 495 506 b 599 306 578 417 599 365 z m 166 -83 l 67 -83 b 156 -254 77 -148 106 -205 b 379 -347 218 -316 292 -347 b 603 -254 466 -347 541 -316 b 696 -31 665 -192 696 -118 l 696 611 l 599 611 l 599 509 b 583 528 594 515 589 521 b 369 625 522 593 451 625 b 155 528 284 625 213 593 b 71 306 99 465 71 391 b 155 83 71 220 99 146 b 369 -14 213 19 284 -14 b 583 83 454 -14 525 19 b 599 103 589 90 594 96 l 599 -31 b 534 -185 599 -91 577 -142 b 379 -250 491 -228 439 -250 b 224 -185 319 -250 267 -228 b 166 -83 194 -155 175 -121 z "},"h":{"ha":707,"x_min":0,"x_max":0,"o":"m 201 0 l 201 256 b 245 449 201 341 216 405 b 308 506 261 474 282 493 b 410 526 334 520 368 526 b 499 484 451 526 481 512 b 526 382 517 456 526 422 l 526 0 l 624 0 l 624 382 b 568 553 624 453 605 510 b 500 605 550 575 527 592 b 394 624 473 617 438 624 b 279 590 351 624 313 612 b 201 506 248 568 222 540 l 201 1042 l 104 1042 l 104 0 z "},"i":{"ha":318,"x_min":0,"x_max":0,"o":"m 203 822 b 159 840 191 834 176 840 b 115 822 142 840 127 834 b 97 778 103 810 97 796 b 115 735 97 761 103 747 b 159 717 127 723 142 717 b 203 735 176 717 191 723 b 221 778 215 747 221 761 b 203 822 221 796 215 810 z m 208 0 l 208 611 l 111 611 l 111 0 z "},"j":{"ha":326,"x_min":0,"x_max":0,"o":"m 229 778 b 211 822 229 795 223 810 b 167 840 199 834 184 840 b 122 822 149 840 134 834 b 104 778 110 810 104 795 b 122 733 104 760 110 745 b 167 715 134 721 149 715 b 211 733 184 715 199 721 b 229 778 223 745 229 760 z m 215 -117 l 215 611 l 118 611 l 118 -118 b 59 -243 118 -186 98 -227 b 9 -247 43 -250 26 -251 b -35 -224 -8 -242 -23 -235 l -35 -317 b 36 -337 -16 -329 7 -336 b 119 -319 65 -339 92 -333 b 187 -251 145 -306 168 -283 b 215 -117 206 -219 215 -174 z "},"k":{"ha":585,"x_min":0,"x_max":0,"o":"m 201 0 l 201 293 l 442 0 l 571 0 l 303 315 l 554 613 l 425 613 l 201 337 l 201 1042 l 104 1042 l 104 0 z "},"l":{"ha":306,"x_min":0,"x_max":0,"o":"m 201 0 l 201 1042 l 104 1042 l 104 0 z "},"m":{"ha":1060,"x_min":0,"x_max":0,"o":"m 879 3 l 976 3 l 976 385 b 926 554 976 454 959 510 b 861 608 909 576 887 594 b 758 628 835 621 801 628 b 647 593 716 628 678 616 b 575 512 618 572 594 545 b 549 554 568 527 559 541 b 485 608 532 576 511 594 b 382 628 459 621 425 628 b 270 593 339 628 302 616 b 201 517 243 573 220 548 l 201 614 l 104 614 l 104 3 l 201 3 l 201 315 b 239 442 207 365 219 407 b 299 506 254 468 274 489 b 379 531 324 522 350 531 b 443 517 408 531 429 526 b 503 385 483 492 503 448 l 503 3 l 600 3 l 600 385 b 599 408 600 393 600 401 b 615 442 604 420 609 431 b 675 506 630 468 650 489 b 756 531 700 522 727 531 b 819 517 784 531 806 526 b 879 385 859 492 879 448 z "},"n":{"ha":707,"x_min":0,"x_max":0,"o":"m 526 0 l 624 0 l 624 382 b 568 553 624 453 605 510 b 500 605 550 575 527 592 b 394 624 473 617 438 624 b 279 590 351 624 313 612 b 201 506 248 568 222 540 l 201 611 l 104 611 l 104 0 l 201 0 l 201 256 b 245 441 201 333 216 395 b 308 503 261 466 282 487 b 410 526 334 519 368 526 b 499 484 451 526 481 512 b 526 382 517 456 526 422 z "},"o":{"ha":764,"x_min":0,"x_max":0,"o":"m 604 308 b 539 153 604 248 582 196 b 382 88 495 109 443 88 b 225 153 321 88 269 109 b 160 308 181 196 160 248 b 225 465 160 369 181 422 b 382 531 269 509 321 531 b 539 465 443 531 495 509 b 604 308 582 422 604 369 z m 701 308 b 608 534 701 396 670 472 b 382 628 545 597 470 628 b 156 534 294 628 219 597 b 63 308 94 472 63 396 b 156 83 63 220 94 145 b 382 -10 219 21 295 -10 b 608 83 469 -10 545 21 b 701 308 670 145 701 220 z "},"p":{"ha":792,"x_min":0,"x_max":0,"o":"m 201 -347 l 201 104 b 219 83 207 97 213 90 b 432 -14 276 19 348 -14 b 645 83 516 -14 587 19 b 729 306 701 146 729 220 b 645 528 729 391 701 465 b 432 625 587 593 516 625 b 219 528 348 625 276 593 b 201 507 213 521 207 514 l 201 611 l 104 611 l 104 -347 z m 632 306 b 570 150 632 246 611 194 b 417 83 529 106 478 83 b 263 150 356 83 305 106 b 201 306 222 194 201 246 b 263 461 201 365 222 417 b 417 528 305 506 356 528 b 570 461 478 528 529 506 b 632 306 611 417 632 365 z "},"q":{"ha":792,"x_min":0,"x_max":0,"o":"m 590 306 b 528 150 590 246 570 194 b 375 83 487 106 436 83 b 222 150 314 83 263 106 b 160 306 180 194 160 246 b 222 461 160 365 180 417 b 375 528 263 506 314 528 b 528 461 436 528 487 506 b 590 306 570 417 590 365 z m 688 -347 l 688 611 l 590 611 l 590 507 b 573 528 585 514 579 521 b 360 625 515 593 444 625 b 147 528 275 625 204 593 b 63 306 91 465 63 391 b 147 83 63 220 91 146 b 360 -14 204 19 275 -14 b 573 83 444 -14 515 19 b 590 104 579 90 585 97 l 590 -347 z "},"r":{"ha":432,"x_min":0,"x_max":0,"o":"m 418 485 l 418 611 b 357 624 399 619 378 624 b 206 510 289 624 238 586 l 201 485 l 201 611 l 104 611 l 104 0 l 201 0 l 201 306 b 236 441 201 356 213 401 b 281 494 248 462 263 479 b 346 515 299 508 321 515 b 418 485 372 515 396 505 z "},"s":{"ha":558,"x_min":0,"x_max":0,"o":"m 193 87 b 140 171 168 103 151 131 l 38 171 b 282 -18 59 45 140 -18 b 374 -6 315 -18 346 -14 b 453 29 403 2 429 13 b 523 175 500 60 523 109 b 429 318 523 241 492 288 b 341 348 402 331 373 341 b 255 371 310 355 282 363 b 187 403 228 380 205 390 b 159 463 169 416 159 436 b 193 525 159 491 171 511 b 271 544 215 538 241 544 b 348 528 301 544 327 539 b 395 460 369 516 385 494 l 499 460 b 421 588 486 521 460 564 b 273 625 382 613 332 625 b 121 578 214 625 164 609 b 57 440 78 547 57 501 b 80 361 57 410 65 384 b 151 306 96 339 120 320 b 238 276 178 293 207 283 b 325 252 269 269 298 260 b 421 162 389 231 421 201 b 287 62 421 96 376 62 b 193 87 249 62 217 71 z "},"t":{"ha":457,"x_min":0,"x_max":0,"o":"m 28 521 l 181 521 l 181 0 l 278 0 l 278 521 l 429 521 l 429 611 l 278 611 l 278 849 l 181 849 l 181 611 l 28 611 z "},"u":{"ha":707,"x_min":0,"x_max":0,"o":"m 526 105 l 526 0 l 624 0 l 624 611 l 526 611 l 526 356 b 479 156 526 271 511 204 b 318 85 448 109 394 85 b 228 127 276 85 247 99 b 201 229 210 155 201 189 l 201 611 l 104 611 l 104 229 b 162 55 104 158 123 100 b 322 -13 200 10 254 -13 b 526 105 413 -13 481 27 z "},"v":{"ha":590,"x_min":0,"x_max":0,"o":"m 296 -58 l 576 611 l 471 611 l 296 157 l 119 611 l 14 611 z "},"w":{"ha":1006,"x_min":0,"x_max":0,"o":"m 701 -78 l 992 611 l 883 611 l 700 140 l 503 643 l 306 140 l 122 611 l 14 611 l 307 -78 l 503 415 z "},"x":{"ha":622,"x_min":0,"x_max":0,"o":"m 464 0 l 588 0 l 374 306 l 588 611 l 464 611 l 311 376 l 158 611 l 35 611 l 249 307 l 35 0 l 158 0 l 311 238 z "},"y":{"ha":590,"x_min":0,"x_max":0,"o":"m 182 -347 l 604 611 l 496 611 l 321 201 l 125 611 l 14 611 l 269 100 l 64 -347 z "},"z":{"ha":632,"x_min":0,"x_max":0,"o":"m 14 0 l 618 0 l 618 90 l 200 90 l 600 611 l 38 611 l 38 521 l 414 521 z "},"{":{"ha":528,"x_min":0,"x_max":0,"o":"m 200 493 b 111 358 200 425 170 381 l 111 264 b 172 224 133 255 154 241 b 200 158 191 207 200 185 l 200 -156 b 222 -280 200 -215 207 -256 b 271 -331 236 -303 252 -321 b 331 -347 289 -342 309 -347 l 380 -347 b 417 -346 391 -347 404 -347 l 417 -278 b 299 -151 338 -294 299 -252 l 299 161 b 226 281 299 211 274 251 b 181 306 211 290 196 298 b 267 376 218 326 247 350 b 299 483 288 403 299 439 l 299 918 b 417 971 299 968 338 986 l 417 1040 b 381 1042 405 1041 393 1042 l 346 1042 b 206 932 266 1042 220 1005 b 200 860 202 910 200 886 z "},"|":{"ha":403,"x_min":0,"x_max":0,"o":"m 164 -312 l 240 -312 l 240 1007 l 164 1007 z "},"}":{"ha":528,"x_min":0,"x_max":0,"o":"m 328 493 l 328 860 b 322 932 328 886 326 910 b 182 1042 308 1005 262 1042 l 147 1042 b 111 1040 135 1042 123 1041 l 111 971 b 229 918 190 986 229 968 l 229 483 b 260 376 229 439 240 403 b 347 306 281 350 310 326 b 302 281 331 298 316 290 b 229 161 253 251 229 211 l 229 -151 b 111 -278 229 -252 190 -294 l 111 -346 b 148 -347 124 -347 136 -347 l 197 -347 b 257 -331 219 -347 238 -342 b 306 -280 275 -321 292 -303 b 328 -156 321 -256 328 -215 l 328 158 b 356 224 328 185 337 207 b 417 264 374 241 394 255 l 417 358 b 328 493 357 381 328 425 z "},"~":{"ha":731,"x_min":0,"x_max":0,"o":"m 551 1071 b 467 994 523 1020 495 994 b 360 1026 439 994 403 1005 b 310 1047 344 1034 328 1041 b 249 1057 293 1054 273 1057 b 158 1001 226 1057 195 1038 b 106 929 138 981 121 957 l 178 882 b 261 965 206 938 233 965 b 317 956 281 965 300 962 b 366 935 333 949 350 942 b 415 914 382 927 398 920 b 465 904 431 907 447 904 b 513 917 482 904 498 908 b 625 1025 555 939 592 975 z "}," ":{"ha":375,"x_min":0,"x_max":0,"o":""},"¨":{"ha":783,"x_min":0,"x_max":0,"o":"m 574 1147 b 529 1165 562 1159 547 1165 b 485 1147 512 1165 497 1159 b 468 1103 474 1135 468 1121 b 485 1060 468 1086 474 1072 b 529 1042 497 1048 512 1042 b 574 1060 547 1042 562 1048 b 592 1103 586 1072 592 1086 b 574 1147 592 1121 586 1135 z m 321 1147 b 276 1165 309 1159 294 1165 b 233 1147 259 1165 244 1159 b 215 1103 221 1135 215 1121 b 233 1060 215 1086 221 1072 b 276 1042 244 1048 259 1042 b 321 1060 294 1042 309 1048 b 339 1103 333 1072 339 1086 b 321 1147 339 1121 333 1135 z "},"©":{"ha":1038,"x_min":0,"x_max":0,"o":"m 735 421 l 651 421 b 526 363 620 382 578 363 b 400 410 473 363 431 378 b 351 522 368 442 351 480 b 400 636 351 566 368 604 b 515 683 431 668 470 683 b 653 622 573 683 619 663 l 736 622 b 665 709 718 658 694 687 b 515 757 622 741 572 757 b 344 687 450 757 393 734 b 274 522 297 642 274 587 b 344 358 274 458 297 404 b 515 289 393 312 450 289 b 735 421 611 289 684 333 z m 883 521 b 776 270 883 422 848 338 b 518 168 705 202 619 168 b 262 270 417 168 332 202 b 154 521 190 340 154 423 b 262 770 154 617 190 700 b 518 872 332 838 417 872 b 776 770 619 872 705 838 b 883 521 848 702 883 619 z m 971 521 b 935 690 971 581 959 637 b 838 829 911 743 878 789 b 694 923 797 869 749 900 b 518 957 639 946 580 957 b 199 829 394 957 287 914 b 101 690 158 789 125 743 b 65 521 77 637 65 581 b 101 351 65 461 77 404 b 199 211 125 297 158 251 b 518 83 287 126 394 83 b 694 117 580 83 639 95 b 838 211 749 140 797 171 b 935 351 878 251 911 297 b 971 521 959 404 971 461 z "},"®":{"ha":1038,"x_min":0,"x_max":0,"o":"m 610 614 b 585 562 610 593 601 575 b 528 542 568 548 549 542 l 463 542 l 463 686 l 528 686 b 585 666 549 686 568 679 b 610 614 601 653 610 635 z m 694 303 l 583 497 b 655 559 619 520 642 541 b 674 614 667 577 674 595 b 631 700 674 648 659 677 b 528 738 601 725 567 738 l 399 738 l 399 303 l 463 303 l 463 492 l 525 492 l 613 303 z m 883 521 b 776 270 883 422 848 338 b 518 168 705 202 619 168 b 262 270 417 168 332 202 b 154 521 190 340 154 423 b 262 770 154 617 190 700 b 518 872 332 838 417 872 b 776 770 619 872 705 838 b 883 521 848 702 883 619 z m 971 521 b 935 690 971 581 959 637 b 838 829 911 743 878 789 b 694 923 797 869 749 900 b 518 957 639 946 580 957 b 199 829 394 957 287 914 b 67 521 111 744 67 641 b 102 351 67 461 78 404 b 199 211 126 297 158 251 b 518 83 287 126 394 83 b 694 117 580 83 639 95 b 838 211 749 140 797 171 b 935 351 878 251 911 297 b 971 521 959 404 971 461 z "},"°":{"ha":639,"x_min":0,"x_max":0,"o":"m 451 739 b 425 649 451 701 443 671 b 384 619 415 637 401 627 b 319 608 367 612 345 608 b 254 619 292 608 271 612 b 208 656 238 627 222 639 b 188 739 194 673 188 701 b 215 827 188 775 197 804 b 319 869 238 855 273 869 b 383 858 345 869 367 866 b 451 739 429 836 451 797 z m 549 740 b 482 890 549 800 526 850 b 319 947 439 928 384 947 b 157 890 254 947 200 928 b 90 740 113 850 90 800 b 156 590 90 678 112 628 b 319 533 198 552 252 533 b 483 590 386 533 441 552 b 531 655 504 608 520 629 b 549 740 543 680 549 709 z "},"´":{"ha":258,"x_min":0,"x_max":0,"o":"m 244 1240 l 139 1240 l 28 1042 l 106 1042 z "},"¶":{"ha":722,"x_min":0,"x_max":0,"o":"m 572 0 l 572 910 l 381 910 b 159 819 294 910 220 880 b 67 600 97 759 67 686 b 151 393 67 519 95 450 b 364 289 206 337 277 302 l 364 0 l 425 0 l 425 850 l 513 850 l 513 0 z "},"¸":{"ha":749,"x_min":0,"x_max":0,"o":"m 368 -64 l 439 85 l 361 83 l 258 -143 b 318 -133 277 -140 297 -137 b 379 -132 339 -130 360 -129 b 444 -217 431 -140 453 -168 b 366 -269 441 -246 415 -264 b 217 -249 318 -274 268 -267 l 182 -321 b 375 -347 247 -347 312 -355 b 510 -256 444 -337 488 -307 b 504 -123 530 -209 528 -165 b 463 -79 494 -105 480 -90 b 404 -62 446 -68 426 -62 b 368 -64 381 -62 369 -63 z "},"À":{"ha":857,"x_min":0,"x_max":0,"o":"m 257 347 l 429 782 l 601 347 z m 843 0 l 429 1010 l 14 0 l 119 0 l 221 257 l 636 257 l 738 0 z m 481 1042 l 356 1240 l 250 1240 l 403 1042 z "},"Á":{"ha":857,"x_min":0,"x_max":0,"o":"m 257 347 l 429 782 l 601 347 z m 843 0 l 429 1010 l 14 0 l 119 0 l 221 257 l 636 257 l 738 0 z m 617 1240 l 497 1240 l 386 1042 l 464 1042 z "},"Â":{"ha":857,"x_min":0,"x_max":0,"o":"m 257 347 l 429 782 l 601 347 z m 843 0 l 429 1010 l 14 0 l 119 0 l 221 257 l 636 257 l 738 0 z m 428 1189 l 528 1042 l 626 1042 l 474 1240 l 382 1240 l 229 1042 l 328 1042 z "},"Ã":{"ha":857,"x_min":0,"x_max":0,"o":"m 257 347 l 429 782 l 601 347 z m 843 0 l 429 1010 l 14 0 l 119 0 l 221 257 l 636 257 l 738 0 z m 200 1042 l 268 1042 b 271 1089 266 1059 267 1075 b 328 1138 278 1121 297 1138 b 372 1120 346 1138 361 1132 b 406 1081 383 1109 395 1096 b 449 1042 418 1067 432 1054 b 527 1025 465 1031 491 1025 b 609 1052 563 1025 590 1034 b 656 1199 647 1088 662 1137 l 588 1199 b 581 1130 588 1164 585 1141 b 563 1110 577 1121 571 1114 b 525 1103 554 1105 542 1103 b 484 1120 508 1103 495 1109 b 451 1158 473 1132 462 1144 b 408 1197 439 1172 425 1185 b 332 1214 392 1208 366 1214 b 252 1187 298 1214 271 1205 b 200 1042 216 1152 198 1104 z "},"Ä":{"ha":857,"x_min":0,"x_max":0,"o":"m 257 347 l 429 782 l 601 347 z m 843 0 l 429 1010 l 14 0 l 119 0 l 221 257 l 636 257 l 738 0 z m 599 1147 b 554 1165 587 1159 572 1165 b 510 1147 537 1165 522 1159 b 493 1103 499 1135 493 1121 b 510 1060 493 1086 499 1072 b 554 1042 522 1048 537 1042 b 599 1060 572 1042 587 1048 b 617 1103 611 1072 617 1086 b 599 1147 617 1121 611 1135 z m 346 1147 b 301 1165 334 1159 319 1165 b 258 1147 284 1165 269 1159 b 240 1103 246 1135 240 1121 b 258 1060 240 1086 246 1072 b 301 1042 269 1048 284 1042 b 346 1060 319 1042 334 1048 b 364 1103 358 1072 364 1086 b 346 1147 364 1121 358 1135 z "},"Å":{"ha":857,"x_min":0,"x_max":0,"o":"m 257 347 l 429 782 l 601 347 z m 843 0 l 455 947 b 523 982 481 952 503 963 b 564 1076 550 1008 564 1040 b 523 1172 564 1115 550 1146 b 428 1210 495 1197 464 1210 b 333 1171 391 1210 360 1197 b 292 1076 305 1145 292 1113 b 333 983 292 1039 305 1008 b 403 947 354 963 377 951 l 14 0 l 119 0 l 221 257 l 636 257 l 738 0 z m 385 1117 b 428 1133 397 1128 411 1133 b 470 1117 444 1133 459 1128 b 488 1077 482 1106 488 1092 b 471 1038 488 1062 482 1049 b 428 1021 460 1026 446 1021 b 385 1038 411 1021 397 1026 b 368 1077 374 1049 368 1062 b 385 1117 368 1092 374 1106 z "},"Æ":{"ha":1136,"x_min":0,"x_max":0,"o":"m 469 808 l 469 329 l 271 329 l 461 751 z m 469 0 l 1032 0 l 1032 100 l 569 97 l 569 419 l 1018 422 l 1018 522 l 569 519 l 569 842 l 1032 844 l 1032 944 l 464 944 l 21 0 l 129 0 l 235 243 l 469 243 z "},"Ç":{"ha":1013,"x_min":0,"x_max":0,"o":"m 971 289 l 864 289 b 727 142 831 228 786 179 b 533 86 668 105 604 86 b 267 201 430 86 341 125 b 160 471 196 276 160 366 b 267 742 160 577 196 667 b 386 826 301 777 341 805 b 519 857 431 847 476 857 b 634 842 563 857 601 852 b 863 657 735 812 811 751 l 969 657 b 797 874 934 747 876 819 b 533 957 718 929 630 957 b 199 813 402 957 291 909 b 99 658 156 768 123 716 b 63 471 75 599 63 537 b 199 131 63 339 108 225 b 473 -10 276 49 368 3 l 413 -143 b 472 -133 431 -140 451 -137 b 533 -132 494 -130 514 -129 b 599 -217 585 -140 607 -168 b 520 -269 595 -246 569 -264 b 371 -249 472 -274 423 -267 l 336 -321 b 529 -347 402 -347 466 -355 b 664 -256 598 -337 643 -307 b 658 -123 684 -209 682 -165 b 617 -79 648 -105 634 -90 b 558 -62 600 -68 580 -62 b 522 -64 536 -62 524 -63 l 546 -14 b 799 70 637 -11 722 17 b 971 289 878 126 936 199 z "},"È":{"ha":769,"x_min":0,"x_max":0,"o":"m 665 0 l 665 90 l 201 90 l 201 426 l 651 426 l 651 518 l 201 518 l 201 854 l 665 854 l 665 944 l 104 944 l 104 0 z m 493 1042 l 368 1240 l 263 1240 l 415 1042 z "},"É":{"ha":769,"x_min":0,"x_max":0,"o":"m 665 0 l 665 90 l 201 90 l 201 426 l 651 426 l 651 518 l 201 518 l 201 854 l 665 854 l 665 944 l 104 944 l 104 0 z m 583 1240 l 464 1240 l 353 1042 l 431 1042 z "},"Ê":{"ha":769,"x_min":0,"x_max":0,"o":"m 665 0 l 665 90 l 201 90 l 201 426 l 651 426 l 651 518 l 201 518 l 201 854 l 665 854 l 665 944 l 104 944 l 104 0 z m 385 1189 l 485 1042 l 583 1042 l 431 1240 l 339 1240 l 186 1042 l 285 1042 z "},"Ë":{"ha":769,"x_min":0,"x_max":0,"o":"m 665 0 l 665 90 l 201 90 l 201 426 l 651 426 l 651 518 l 201 518 l 201 854 l 665 854 l 665 944 l 104 944 l 104 0 z m 557 1147 b 512 1165 545 1159 530 1165 b 469 1147 495 1165 480 1159 b 451 1103 457 1135 451 1121 b 469 1060 451 1086 457 1072 b 512 1042 480 1048 495 1042 b 557 1060 530 1042 545 1048 b 575 1103 569 1072 575 1086 b 557 1147 575 1121 569 1135 z m 304 1147 b 260 1165 292 1159 277 1165 b 216 1147 242 1165 228 1159 b 199 1103 204 1135 199 1121 b 216 1060 199 1086 204 1072 b 260 1042 228 1048 242 1042 b 304 1060 277 1042 292 1048 b 322 1103 316 1072 322 1086 b 304 1147 322 1121 316 1135 z "},"Ì":{"ha":306,"x_min":0,"x_max":0,"o":"m 201 0 l 201 944 l 104 944 l 104 0 z m 204 1042 l 79 1240 l -26 1240 l 126 1042 z "},"Í":{"ha":306,"x_min":0,"x_max":0,"o":"m 201 0 l 201 944 l 104 944 l 104 0 z m 353 1240 l 233 1240 l 122 1042 l 200 1042 z "},"Î":{"ha":306,"x_min":0,"x_max":0,"o":"m 201 0 l 201 944 l 104 944 l 104 0 z m 154 1189 l 254 1042 l 353 1042 l 200 1240 l 108 1240 l -44 1042 l 54 1042 z "},"Ï":{"ha":306,"x_min":0,"x_max":0,"o":"m 201 0 l 201 944 l 104 944 l 104 0 z m 325 1147 b 281 1165 313 1159 298 1165 b 237 1147 263 1165 248 1159 b 219 1103 225 1135 219 1121 b 237 1060 219 1086 225 1072 b 281 1042 248 1048 263 1042 b 325 1060 298 1042 313 1048 b 343 1103 337 1072 343 1086 b 325 1147 343 1121 337 1135 z m 72 1147 b 28 1165 60 1159 45 1165 b -16 1147 10 1165 -4 1159 b -33 1103 -28 1135 -33 1121 b -16 1060 -33 1086 -28 1072 b 28 1042 -4 1048 10 1042 b 72 1060 45 1042 60 1048 b 90 1103 84 1072 90 1086 b 72 1147 90 1121 84 1135 z "},"Ð":{"ha":900,"x_min":0,"x_max":0,"o":"m 743 472 b 629 203 743 365 705 275 b 354 97 555 132 463 97 l 201 97 l 201 410 l 476 410 l 476 489 l 201 489 l 201 847 l 354 847 b 629 742 463 847 555 812 b 743 472 705 670 743 580 z m 838 472 b 799 662 838 541 825 604 b 696 811 774 720 739 769 b 542 909 652 853 601 885 b 351 944 482 933 419 944 l 104 944 l 104 489 l 11 489 l 11 410 l 104 410 l 104 0 l 351 0 b 542 35 419 0 482 12 b 696 133 601 59 652 92 b 799 283 739 175 774 225 b 838 472 825 341 838 404 z "},"Ñ":{"ha":836,"x_min":0,"x_max":0,"o":"m 201 696 l 732 -58 l 732 944 l 635 944 l 635 250 l 104 1004 l 104 0 l 201 0 z m 192 1042 l 260 1042 b 263 1089 258 1059 259 1075 b 319 1138 270 1121 289 1138 b 364 1120 338 1138 353 1132 b 398 1081 375 1109 386 1096 b 440 1042 409 1067 424 1054 b 519 1025 457 1031 483 1025 b 601 1052 554 1025 582 1034 b 647 1199 639 1088 654 1137 l 579 1199 b 572 1130 579 1164 577 1141 b 554 1110 569 1121 563 1114 b 517 1103 546 1105 533 1103 b 476 1120 500 1103 486 1109 b 442 1158 465 1132 454 1144 b 400 1197 431 1172 417 1185 b 324 1214 383 1208 358 1214 b 244 1187 289 1214 263 1205 b 192 1042 207 1152 190 1104 z "},"Ò":{"ha":1096,"x_min":0,"x_max":0,"o":"m 936 475 b 822 200 936 368 898 276 b 547 86 746 124 655 86 b 274 200 441 86 350 124 b 160 475 198 276 160 368 b 274 749 160 581 198 673 b 547 863 350 825 441 863 b 822 749 655 863 746 825 b 936 475 898 673 936 581 z m 1033 475 b 995 664 1033 542 1021 605 b 891 818 970 723 935 775 b 736 922 847 862 795 896 b 547 960 677 947 614 960 b 359 922 481 960 418 947 b 205 818 300 896 249 862 b 101 664 161 775 126 723 b 62 475 75 605 62 542 b 101 286 62 408 75 345 b 205 131 126 227 161 175 b 359 27 249 87 300 53 b 547 -11 418 2 481 -11 b 736 27 614 -11 677 2 b 891 131 795 53 847 87 b 995 286 935 175 970 227 b 1033 475 1021 345 1033 408 z m 586 1042 l 461 1240 l 356 1240 l 508 1042 z "},"Ó":{"ha":1096,"x_min":0,"x_max":0,"o":"m 936 475 b 822 200 936 368 898 276 b 547 86 746 124 655 86 b 274 200 441 86 350 124 b 160 475 198 276 160 368 b 274 749 160 581 198 673 b 547 863 350 825 441 863 b 822 749 655 863 746 825 b 936 475 898 673 936 581 z m 1033 475 b 995 664 1033 542 1021 605 b 891 818 970 723 935 775 b 736 922 847 862 795 896 b 547 960 677 947 614 960 b 359 922 481 960 418 947 b 205 818 300 896 249 862 b 101 664 161 775 126 723 b 62 475 75 605 62 542 b 101 286 62 408 75 345 b 205 131 126 227 161 175 b 359 27 249 87 300 53 b 547 -11 418 2 481 -11 b 736 27 614 -11 677 2 b 891 131 795 53 847 87 b 995 286 935 175 970 227 b 1033 475 1021 345 1033 408 z m 739 1240 l 619 1240 l 508 1042 l 586 1042 z "},"Ô":{"ha":1096,"x_min":0,"x_max":0,"o":"m 936 475 b 822 200 936 368 898 276 b 547 86 746 124 655 86 b 274 200 441 86 350 124 b 160 475 198 276 160 368 b 274 749 160 581 198 673 b 547 863 350 825 441 863 b 822 749 655 863 746 825 b 936 475 898 673 936 581 z m 1033 475 b 995 664 1033 542 1021 605 b 891 818 970 723 935 775 b 736 922 847 862 795 896 b 547 960 677 947 614 960 b 359 922 481 960 418 947 b 205 818 300 896 249 862 b 101 664 161 775 126 723 b 62 475 75 605 62 542 b 101 286 62 408 75 345 b 205 131 126 227 161 175 b 359 27 249 87 300 53 b 547 -11 418 2 481 -11 b 736 27 614 -11 677 2 b 891 131 795 53 847 87 b 995 286 935 175 970 227 b 1033 475 1021 345 1033 408 z m 547 1189 l 647 1042 l 746 1042 l 593 1240 l 501 1240 l 349 1042 l 447 1042 z "},"Õ":{"ha":1096,"x_min":0,"x_max":0,"o":"m 936 475 b 822 200 936 368 898 276 b 547 86 746 124 655 86 b 274 200 441 86 350 124 b 160 475 198 276 160 368 b 274 749 160 581 198 673 b 547 863 350 825 441 863 b 822 749 655 863 746 825 b 936 475 898 673 936 581 z m 1033 475 b 995 664 1033 542 1021 605 b 891 818 970 723 935 775 b 736 922 847 862 795 896 b 547 960 677 947 614 960 b 359 922 481 960 418 947 b 205 818 300 896 249 862 b 101 664 161 775 126 723 b 62 475 75 605 62 542 b 101 286 62 408 75 345 b 205 131 126 227 161 175 b 359 27 249 87 300 53 b 547 -11 418 2 481 -11 b 736 27 614 -11 677 2 b 891 131 795 53 847 87 b 995 286 935 175 970 227 b 1033 475 1021 345 1033 408 z m 319 1042 l 388 1042 b 390 1089 386 1059 387 1075 b 447 1138 398 1121 417 1138 b 492 1120 466 1138 481 1132 b 526 1081 503 1109 514 1096 b 568 1042 537 1067 551 1054 b 647 1025 585 1031 611 1025 b 728 1052 682 1025 709 1034 b 775 1199 766 1088 782 1137 l 707 1199 b 700 1130 707 1164 705 1141 b 682 1110 696 1121 690 1114 b 644 1103 674 1105 661 1103 b 603 1120 628 1103 614 1109 b 570 1158 593 1132 582 1144 b 528 1197 559 1172 544 1185 b 451 1214 511 1208 486 1214 b 372 1187 417 1214 391 1205 b 319 1042 335 1152 318 1104 z "},"Ö":{"ha":1096,"x_min":0,"x_max":0,"o":"m 936 475 b 822 200 936 368 898 276 b 547 86 746 124 655 86 b 274 200 441 86 350 124 b 160 475 198 276 160 368 b 274 749 160 581 198 673 b 547 863 350 825 441 863 b 822 749 655 863 746 825 b 936 475 898 673 936 581 z m 1033 475 b 995 664 1033 542 1021 605 b 891 818 970 723 935 775 b 736 922 847 862 795 896 b 547 960 677 947 614 960 b 359 922 481 960 418 947 b 205 818 300 896 249 862 b 101 664 161 775 126 723 b 62 475 75 605 62 542 b 101 286 62 408 75 345 b 205 131 126 227 161 175 b 359 27 249 87 300 53 b 547 -11 418 2 481 -11 b 736 27 614 -11 677 2 b 891 131 795 53 847 87 b 995 286 935 175 970 227 b 1033 475 1021 345 1033 408 z m 718 1147 b 674 1165 706 1159 691 1165 b 630 1147 656 1165 641 1159 b 612 1103 618 1135 612 1121 b 630 1060 612 1086 618 1072 b 674 1042 641 1048 656 1042 b 718 1060 691 1042 706 1048 b 736 1103 730 1072 736 1086 b 718 1147 736 1121 730 1135 z m 465 1147 b 421 1165 453 1159 438 1165 b 377 1147 403 1165 389 1159 b 360 1103 366 1135 360 1121 b 377 1060 360 1086 366 1072 b 421 1042 389 1048 403 1042 b 465 1060 438 1042 453 1048 b 483 1103 477 1072 483 1086 b 465 1147 483 1121 477 1135 z "},"×":{"ha":639,"x_min":0,"x_max":0,"o":"m 536 147 l 376 308 l 536 469 l 481 526 l 319 365 l 158 526 l 103 469 l 263 308 l 103 147 l 158 92 l 319 253 l 481 92 z "},"Ø":{"ha":1096,"x_min":0,"x_max":0,"o":"m 1033 475 b 995 664 1033 542 1021 605 b 919 788 975 710 950 752 l 978 847 l 924 901 l 864 842 b 736 922 827 875 784 901 b 547 960 677 947 614 960 b 359 922 481 960 418 947 b 205 818 300 896 249 862 b 101 664 161 775 126 723 b 63 475 75 605 63 542 b 101 286 63 408 75 345 b 180 159 121 239 147 196 l 118 97 l 172 43 l 234 105 b 359 27 271 73 313 47 b 547 -11 418 2 481 -11 b 736 27 614 -11 677 2 b 891 131 795 53 847 87 b 995 286 935 175 970 227 b 1033 475 1021 345 1033 408 z m 303 173 l 849 719 b 936 475 907 649 936 568 b 822 200 936 368 898 276 b 547 86 746 124 655 86 b 303 173 454 86 373 115 z m 248 227 b 160 475 189 298 160 380 b 274 749 160 581 198 673 b 547 863 350 825 441 863 b 795 773 642 863 725 833 z "},"Ù":{"ha":871,"x_min":0,"x_max":0,"o":"m 788 313 l 788 944 l 690 944 l 690 299 b 669 201 690 261 683 228 b 436 85 629 124 551 85 b 258 135 362 85 302 101 b 181 299 206 173 181 228 l 181 944 l 83 944 l 83 313 b 183 71 83 210 117 130 b 436 -12 246 15 331 -12 b 688 71 541 -12 625 15 b 788 313 754 130 788 210 z m 489 1042 l 364 1240 l 258 1240 l 411 1042 z "},"Ú":{"ha":871,"x_min":0,"x_max":0,"o":"m 788 313 l 788 944 l 690 944 l 690 299 b 669 201 690 261 683 228 b 436 85 629 124 551 85 b 258 135 362 85 302 101 b 181 299 206 173 181 228 l 181 944 l 83 944 l 83 313 b 183 71 83 210 117 130 b 436 -12 246 15 331 -12 b 688 71 541 -12 625 15 b 788 313 754 130 788 210 z m 633 1240 l 514 1240 l 403 1042 l 481 1042 z "},"Û":{"ha":871,"x_min":0,"x_max":0,"o":"m 788 313 l 788 944 l 690 944 l 690 299 b 669 201 690 261 683 228 b 436 85 629 124 551 85 b 258 135 362 85 302 101 b 181 299 206 173 181 228 l 181 944 l 83 944 l 83 313 b 183 71 83 210 117 130 b 436 -12 246 15 331 -12 b 688 71 541 -12 625 15 b 788 313 754 130 788 210 z m 436 1189 l 536 1042 l 635 1042 l 482 1240 l 390 1240 l 238 1042 l 336 1042 z "},"Ü":{"ha":871,"x_min":0,"x_max":0,"o":"m 788 313 l 788 944 l 690 944 l 690 299 b 669 201 690 261 683 228 b 436 85 629 124 551 85 b 258 135 362 85 302 101 b 181 299 206 173 181 228 l 181 944 l 83 944 l 83 313 b 183 71 83 210 117 130 b 436 -12 246 15 331 -12 b 688 71 541 -12 625 15 b 788 313 754 130 788 210 z m 607 1147 b 562 1165 595 1159 580 1165 b 519 1147 545 1165 530 1159 b 501 1103 507 1135 501 1121 b 519 1060 501 1086 507 1072 b 562 1042 530 1048 545 1042 b 607 1060 580 1042 595 1048 b 625 1103 619 1072 625 1086 b 607 1147 625 1121 619 1135 z m 354 1147 b 310 1165 342 1159 327 1165 b 266 1147 292 1165 278 1159 b 249 1103 254 1135 249 1121 b 266 1060 249 1086 254 1072 b 310 1042 278 1048 292 1042 b 354 1060 327 1042 342 1048 b 372 1103 366 1072 372 1086 b 354 1147 372 1121 366 1135 z "},"Ý":{"ha":840,"x_min":0,"x_max":0,"o":"m 469 444 l 826 944 l 703 944 l 421 540 l 139 944 l 14 944 l 372 444 l 372 0 l 469 0 z m 622 1240 l 503 1240 l 392 1042 l 469 1042 z "},"Þ":{"ha":735,"x_min":0,"x_max":0,"o":"m 707 521 b 619 726 707 604 678 673 b 407 806 561 779 490 806 l 201 806 l 201 945 l 104 945 l 104 0 l 201 0 l 201 235 l 407 235 b 619 315 491 235 562 261 b 707 521 678 370 707 438 z m 201 713 l 421 713 b 558 660 478 713 524 695 b 610 523 593 625 610 579 b 556 384 610 468 592 422 b 421 329 520 347 475 329 l 201 329 z "},"ß":{"ha":767,"x_min":0,"x_max":0,"o":"m 326 0 l 418 0 b 626 81 498 0 567 27 b 718 285 688 137 718 205 b 661 441 718 347 699 399 b 521 536 623 483 576 515 b 610 612 557 555 587 580 b 646 724 634 644 646 681 b 566 894 646 793 619 850 b 385 958 515 937 454 958 b 162 861 280 958 206 926 b 106 612 124 806 106 723 l 106 0 l 206 0 l 206 578 b 208 679 206 612 206 646 b 228 769 210 712 217 742 b 281 833 239 795 257 816 b 384 857 306 849 340 857 b 495 817 428 857 465 844 b 543 711 527 788 543 753 b 495 604 543 669 527 633 b 385 564 465 577 429 564 l 371 564 l 371 478 l 418 478 b 557 427 472 478 518 461 b 617 294 597 392 617 348 b 557 152 617 238 597 191 b 418 93 517 113 470 93 l 322 93 z "},"à":{"ha":792,"x_min":0,"x_max":0,"o":"m 590 306 b 528 150 590 246 570 194 b 375 83 487 106 436 83 b 222 150 314 83 263 106 b 160 306 180 194 160 246 b 222 461 160 365 180 417 b 375 528 263 506 314 528 b 528 461 436 528 487 506 b 590 306 570 417 590 365 z m 688 0 l 688 611 l 590 611 l 590 507 b 573 528 585 514 579 521 b 360 625 515 593 444 625 b 147 528 275 625 204 593 b 63 306 91 465 63 391 b 147 83 63 220 91 146 b 360 -14 204 19 275 -14 b 573 83 444 -14 515 19 b 590 104 579 90 585 97 l 590 0 z m 422 718 l 297 917 l 192 917 l 344 718 z "},"á":{"ha":792,"x_min":0,"x_max":0,"o":"m 590 306 b 528 150 590 246 570 194 b 375 83 487 106 436 83 b 222 150 314 83 263 106 b 160 306 180 194 160 246 b 222 461 160 365 180 417 b 375 528 263 506 314 528 b 528 461 436 528 487 506 b 590 306 570 417 590 365 z m 688 0 l 688 611 l 590 611 l 590 507 b 573 528 585 514 579 521 b 360 625 515 593 444 625 b 147 528 275 625 204 593 b 63 306 91 465 63 391 b 147 83 63 220 91 146 b 360 -14 204 19 275 -14 b 573 83 444 -14 515 19 b 590 104 579 90 585 97 l 590 0 z m 525 946 l 406 946 l 294 747 l 372 747 z "},"â":{"ha":792,"x_min":0,"x_max":0,"o":"m 590 306 b 528 150 590 246 570 194 b 375 83 487 106 436 83 b 222 150 314 83 263 106 b 160 306 180 194 160 246 b 222 461 160 365 180 417 b 375 528 263 506 314 528 b 528 461 436 528 487 506 b 590 306 570 417 590 365 z m 688 0 l 688 611 l 590 611 l 590 507 b 573 528 585 514 579 521 b 360 625 515 593 444 625 b 147 528 275 625 204 593 b 63 306 91 465 63 391 b 147 83 63 220 91 146 b 360 -14 204 19 275 -14 b 573 83 444 -14 515 19 b 590 104 579 90 585 97 l 590 0 z m 368 865 l 468 718 l 567 718 l 414 917 l 322 917 l 169 718 l 268 718 z "},"ã":{"ha":792,"x_min":0,"x_max":0,"o":"m 590 306 b 528 150 590 246 570 194 b 375 83 487 106 436 83 b 222 150 314 83 263 106 b 160 306 180 194 160 246 b 222 461 160 365 180 417 b 375 528 263 506 314 528 b 528 461 436 528 487 506 b 590 306 570 417 590 365 z m 688 0 l 688 611 l 590 611 l 590 507 b 573 528 585 514 579 521 b 360 625 515 593 444 625 b 147 528 275 625 204 593 b 63 306 91 465 63 391 b 147 83 63 220 91 146 b 360 -14 204 19 275 -14 b 573 83 444 -14 515 19 b 590 104 579 90 585 97 l 590 0 z m 146 719 l 214 719 b 217 767 212 737 213 753 b 274 815 224 799 243 815 b 318 798 292 815 307 809 b 352 759 329 786 341 773 b 394 720 364 745 378 732 b 473 703 411 709 437 703 b 555 730 509 703 536 712 b 601 876 593 766 608 815 l 533 876 b 526 808 533 842 531 819 b 508 788 523 799 517 792 b 471 781 500 783 488 781 b 430 798 454 781 441 786 b 397 836 419 809 408 822 b 354 874 385 850 371 863 b 278 892 338 886 312 892 b 198 865 244 892 217 883 b 146 719 161 830 144 781 z "},"ä":{"ha":792,"x_min":0,"x_max":0,"o":"m 590 306 b 528 150 590 246 570 194 b 375 83 487 106 436 83 b 222 150 314 83 263 106 b 160 306 180 194 160 246 b 222 461 160 365 180 417 b 375 528 263 506 314 528 b 528 461 436 528 487 506 b 590 306 570 417 590 365 z m 688 0 l 688 611 l 590 611 l 590 507 b 573 528 585 514 579 521 b 360 625 515 593 444 625 b 147 528 275 625 204 593 b 63 306 91 465 63 391 b 147 83 63 220 91 146 b 360 -14 204 19 275 -14 b 573 83 444 -14 515 19 b 590 104 579 90 585 97 l 590 0 z m 526 824 b 482 842 514 836 500 842 b 438 824 464 842 450 836 b 421 780 427 812 421 797 b 438 736 421 763 427 748 b 482 718 450 724 464 718 b 526 736 500 718 514 724 b 544 780 538 748 544 763 b 526 824 544 797 538 812 z m 274 824 b 229 842 262 836 247 842 b 185 824 212 842 197 836 b 168 780 174 812 168 797 b 185 736 168 763 174 748 b 229 718 197 724 212 718 b 274 736 247 718 262 724 b 292 780 286 748 292 763 b 274 824 292 797 286 812 z "},"å":{"ha":792,"x_min":0,"x_max":0,"o":"m 590 306 b 528 150 590 246 570 194 b 375 83 487 106 436 83 b 222 150 314 83 263 106 b 160 306 180 194 160 246 b 222 461 160 365 180 417 b 375 528 263 506 314 528 b 528 461 436 528 487 506 b 590 306 570 417 590 365 z m 688 0 l 688 611 l 590 611 l 590 507 b 573 528 585 514 579 521 b 360 625 515 593 444 625 b 147 528 275 625 204 593 b 63 306 91 465 63 391 b 147 83 63 220 91 146 b 360 -14 204 19 275 -14 b 573 83 444 -14 515 19 b 590 104 579 90 585 97 l 590 0 z m 312 868 b 354 885 323 879 338 885 b 397 868 371 885 385 879 b 414 828 408 857 414 844 b 397 789 414 813 408 800 b 355 772 386 778 372 772 b 312 789 338 772 323 778 b 294 828 300 800 294 813 b 312 868 294 844 300 857 z m 218 828 b 259 734 218 791 232 759 b 354 696 287 709 318 696 b 449 733 392 696 423 708 b 490 828 477 760 490 791 b 449 923 490 866 477 898 b 354 961 422 948 390 961 b 259 922 318 961 286 948 b 218 828 232 896 218 864 z "},"æ":{"ha":1204,"x_min":0,"x_max":0,"o":"m 538 165 b 420 102 504 138 465 117 b 292 79 375 87 332 79 b 195 105 251 79 219 88 b 160 196 172 122 160 152 b 229 297 160 239 183 273 l 503 297 l 503 296 b 538 165 507 245 518 202 z m 1039 358 l 606 358 b 684 483 618 409 644 451 b 823 531 724 515 771 531 b 961 483 875 531 921 515 b 1039 358 1001 451 1027 409 z m 578 103 b 835 -10 641 28 727 -10 b 997 41 890 -10 944 7 b 1114 179 1049 75 1088 121 l 1003 179 b 923 112 981 150 955 128 b 822 88 891 96 857 88 b 681 139 770 88 723 105 b 604 268 639 173 614 216 l 1142 268 l 1142 319 b 1045 538 1142 404 1109 476 b 943 603 1016 565 982 587 b 817 628 904 620 862 628 b 685 597 772 628 728 618 b 575 511 642 577 606 548 b 477 599 553 553 520 582 b 340 625 434 616 388 625 b 199 592 291 625 244 614 b 99 482 153 569 120 533 l 188 444 b 252 515 200 476 222 500 b 337 539 282 531 310 539 b 404 531 363 539 386 536 b 503 410 470 513 503 473 l 503 375 l 194 375 b 99 300 155 358 123 333 b 63 183 75 267 63 228 b 120 39 63 123 82 74 b 185 0 138 22 160 9 b 265 -14 211 -9 237 -14 b 349 -5 292 -14 320 -11 b 578 103 444 15 520 51 z "},"ç":{"ha":724,"x_min":0,"x_max":0,"o":"m 675 392 b 565 558 656 461 619 516 b 375 624 508 602 445 624 b 153 529 288 624 214 592 b 63 306 93 467 63 392 b 153 81 63 219 93 144 b 251 12 181 52 213 29 b 332 -12 278 0 305 -8 l 272 -143 b 332 -133 291 -140 311 -137 b 393 -132 353 -130 374 -129 b 458 -217 445 -140 467 -168 b 380 -269 455 -246 429 -264 b 231 -249 332 -274 282 -267 l 196 -321 b 389 -347 261 -347 326 -355 b 524 -256 457 -337 502 -307 b 518 -123 543 -209 542 -165 b 477 -79 508 -105 494 -90 b 418 -63 460 -68 440 -63 b 382 -64 395 -63 383 -63 l 407 -12 b 471 2 430 -9 451 -5 b 669 200 569 36 635 102 l 560 200 b 483 118 541 166 516 138 b 375 87 450 98 414 87 b 224 152 316 87 265 109 b 163 306 183 195 163 246 b 224 458 163 364 183 414 b 292 505 243 478 266 493 b 385 522 318 516 349 522 b 492 486 421 522 456 510 b 569 392 527 462 553 431 z "},"è":{"ha":764,"x_min":0,"x_max":0,"o":"m 701 319 b 605 538 701 404 669 476 b 382 628 542 598 467 628 b 156 534 294 628 219 597 b 63 308 94 472 63 396 b 156 83 63 220 94 145 b 258 15 185 55 219 32 b 397 -10 296 -1 342 -10 b 556 41 451 -10 504 7 b 674 179 609 75 648 121 l 563 179 b 483 112 541 150 515 128 b 382 87 451 96 417 87 b 240 139 330 87 283 105 b 164 268 199 173 173 216 l 701 268 z m 599 351 l 165 351 b 194 423 171 377 181 401 b 382 531 240 495 303 531 b 520 481 434 531 480 514 b 599 351 561 446 587 403 z m 436 718 l 311 917 l 206 917 l 358 718 z "},"é":{"ha":764,"x_min":0,"x_max":0,"o":"m 701 319 b 605 538 701 404 669 476 b 382 628 542 598 467 628 b 156 534 294 628 219 597 b 63 308 94 472 63 396 b 156 83 63 220 94 145 b 258 15 185 55 219 32 b 397 -10 296 -1 342 -10 b 556 41 451 -10 504 7 b 674 179 609 75 648 121 l 563 179 b 483 112 541 150 515 128 b 382 87 451 96 417 87 b 240 139 330 87 283 105 b 164 268 199 173 173 216 l 701 268 z m 599 351 l 165 351 b 194 423 171 377 181 401 b 382 531 240 495 303 531 b 520 481 434 531 480 514 b 599 351 561 446 587 403 z m 567 946 l 447 946 l 336 747 l 414 747 z "},"ê":{"ha":764,"x_min":0,"x_max":0,"o":"m 701 319 b 605 538 701 404 669 476 b 382 628 542 598 467 628 b 156 534 294 628 219 597 b 63 308 94 472 63 396 b 156 83 63 220 94 145 b 258 15 185 55 219 32 b 397 -10 296 -1 342 -10 b 556 41 451 -10 504 7 b 674 179 609 75 648 121 l 563 179 b 483 112 541 150 515 128 b 382 87 451 96 417 87 b 240 139 330 87 283 105 b 164 268 199 173 173 216 l 701 268 z m 599 351 l 165 351 b 194 423 171 377 181 401 b 382 531 240 495 303 531 b 520 481 434 531 480 514 b 599 351 561 446 587 403 z m 382 865 l 482 718 l 581 718 l 428 917 l 336 917 l 183 718 l 282 718 z "},"ë":{"ha":764,"x_min":0,"x_max":0,"o":"m 701 319 b 605 538 701 404 669 476 b 382 628 542 598 467 628 b 156 534 294 628 219 597 b 63 308 94 472 63 396 b 156 83 63 220 94 145 b 258 15 185 55 219 32 b 397 -10 296 -1 342 -10 b 556 41 451 -10 504 7 b 674 179 609 75 648 121 l 563 179 b 483 112 541 150 515 128 b 382 87 451 96 417 87 b 240 139 330 87 283 105 b 164 268 199 173 173 216 l 701 268 z m 599 351 l 165 351 b 194 423 171 377 181 401 b 382 531 240 495 303 531 b 520 481 434 531 480 514 b 599 351 561 446 587 403 z m 554 824 b 510 842 542 836 527 842 b 466 824 492 842 478 836 b 449 780 454 812 449 797 b 466 736 449 763 454 748 b 510 718 478 724 492 718 b 554 736 527 718 542 724 b 572 780 566 748 572 763 b 554 824 572 797 566 812 z m 301 824 b 257 842 289 836 275 842 b 213 824 239 842 225 836 b 196 780 202 812 196 797 b 213 736 196 763 202 748 b 257 718 225 724 239 718 b 301 736 275 718 289 724 b 319 780 313 748 319 763 b 301 824 319 797 313 812 z "},"ì":{"ha":318,"x_min":0,"x_max":0,"o":"m 208 0 l 208 611 l 111 611 l 111 0 z m 200 718 l 75 917 l -31 917 l 122 718 z "},"í":{"ha":318,"x_min":0,"x_max":0,"o":"m 208 0 l 208 611 l 111 611 l 111 0 z m 368 946 l 249 946 l 138 747 l 215 747 z "},"î":{"ha":318,"x_min":0,"x_max":0,"o":"m 208 0 l 208 611 l 111 611 l 111 0 z m 160 865 l 260 718 l 358 718 l 206 917 l 114 917 l -39 718 l 60 718 z "},"ï":{"ha":318,"x_min":0,"x_max":0,"o":"m 208 0 l 208 611 l 111 611 l 111 0 z m 332 824 b 287 842 320 836 305 842 b 244 824 270 842 255 836 b 226 780 232 812 226 797 b 244 736 226 763 232 748 b 287 718 255 724 270 718 b 332 736 305 718 320 724 b 350 780 344 748 350 763 b 332 824 350 797 344 812 z m 79 824 b 35 842 67 836 52 842 b -9 824 17 842 3 836 b -26 780 -21 812 -26 797 b -9 736 -26 763 -21 748 b 35 718 3 724 17 718 b 79 736 52 718 67 724 b 97 780 91 748 97 763 b 79 824 97 797 91 812 z "},"ð":{"ha":792,"x_min":0,"x_max":0,"o":"m 688 0 l 688 758 l 778 758 l 778 838 l 688 838 l 688 1042 l 590 1042 l 590 838 l 313 838 l 313 758 l 590 758 l 590 507 b 573 528 585 514 579 521 b 360 625 515 593 444 625 b 147 528 275 625 204 593 b 63 306 91 465 63 391 b 147 83 63 220 91 146 b 360 -14 204 19 275 -14 b 573 83 444 -14 515 19 b 590 104 579 90 585 97 l 590 0 z m 590 306 b 528 150 590 246 570 194 b 375 83 487 106 436 83 b 222 150 314 83 263 106 b 160 306 180 194 160 246 b 222 461 160 365 180 417 b 375 528 263 506 314 528 b 528 461 436 528 487 506 b 590 306 570 417 590 365 z "},"ñ":{"ha":707,"x_min":0,"x_max":0,"o":"m 526 0 l 624 0 l 624 382 b 568 553 624 453 605 510 b 500 605 550 575 527 592 b 394 624 473 617 438 624 b 279 590 351 624 313 612 b 201 506 248 568 222 540 l 201 611 l 104 611 l 104 0 l 201 0 l 201 256 b 245 441 201 333 216 395 b 308 503 261 466 282 487 b 410 526 334 519 368 526 b 499 484 451 526 481 512 b 526 382 517 456 526 422 z m 125 719 l 193 719 b 196 767 191 737 192 753 b 253 815 203 799 222 815 b 297 798 271 815 286 809 b 331 759 308 786 320 773 b 374 720 343 745 357 732 b 452 703 390 709 416 703 b 534 730 488 703 515 712 b 581 876 572 766 587 815 l 513 876 b 506 808 513 842 510 819 b 488 788 502 799 496 792 b 450 781 479 783 467 781 b 409 798 433 781 420 786 b 376 836 398 809 387 822 b 333 874 364 850 350 863 b 257 892 317 886 291 892 b 177 865 223 892 196 883 b 125 719 141 830 123 781 z "},"ò":{"ha":764,"x_min":0,"x_max":0,"o":"m 604 308 b 539 153 604 248 582 196 b 382 88 495 109 443 88 b 225 153 321 88 269 109 b 160 308 181 196 160 248 b 225 465 160 369 181 422 b 382 531 269 509 321 531 b 539 465 443 531 495 509 b 604 308 582 422 604 369 z m 701 308 b 608 534 701 396 670 472 b 382 628 545 597 470 628 b 156 534 294 628 219 597 b 63 308 94 472 63 396 b 156 83 63 220 94 145 b 382 -10 219 21 295 -10 b 608 83 469 -10 545 21 b 701 308 670 145 701 220 z m 435 718 l 310 917 l 204 917 l 357 718 z "},"ó":{"ha":764,"x_min":0,"x_max":0,"o":"m 604 308 b 539 153 604 248 582 196 b 382 88 495 109 443 88 b 225 153 321 88 269 109 b 160 308 181 196 160 248 b 225 465 160 369 181 422 b 382 531 269 509 321 531 b 539 465 443 531 495 509 b 604 308 582 422 604 369 z m 701 308 b 608 534 701 396 670 472 b 382 628 545 597 470 628 b 156 534 294 628 219 597 b 63 308 94 472 63 396 b 156 83 63 220 94 145 b 382 -10 219 21 295 -10 b 608 83 469 -10 545 21 b 701 308 670 145 701 220 z m 581 946 l 461 946 l 350 747 l 428 747 z "},"ô":{"ha":764,"x_min":0,"x_max":0,"o":"m 604 308 b 539 153 604 248 582 196 b 382 88 495 109 443 88 b 225 153 321 88 269 109 b 160 308 181 196 160 248 b 225 465 160 369 181 422 b 382 531 269 509 321 531 b 539 465 443 531 495 509 b 604 308 582 422 604 369 z m 701 308 b 608 534 701 396 670 472 b 382 628 545 597 470 628 b 156 534 294 628 219 597 b 63 308 94 472 63 396 b 156 83 63 220 94 145 b 382 -10 219 21 295 -10 b 608 83 469 -10 545 21 b 701 308 670 145 701 220 z m 382 865 l 482 718 l 581 718 l 428 917 l 336 917 l 183 718 l 282 718 z "},"õ":{"ha":764,"x_min":0,"x_max":0,"o":"m 604 308 b 539 153 604 248 582 196 b 382 88 495 109 443 88 b 225 153 321 88 269 109 b 160 308 181 196 160 248 b 225 465 160 369 181 422 b 382 531 269 509 321 531 b 539 465 443 531 495 509 b 604 308 582 422 604 369 z m 701 308 b 608 534 701 396 670 472 b 382 628 545 597 470 628 b 156 534 294 628 219 597 b 63 308 94 472 63 396 b 156 83 63 220 94 145 b 382 -10 219 21 295 -10 b 608 83 469 -10 545 21 b 701 308 670 145 701 220 z m 153 719 l 221 719 b 224 767 219 737 220 753 b 281 815 231 799 250 815 b 325 798 299 815 314 809 b 359 759 336 786 347 773 b 401 720 371 745 385 732 b 480 703 418 709 444 703 b 562 730 516 703 543 712 b 608 876 600 766 615 815 l 540 876 b 533 808 540 842 538 819 b 515 788 530 799 524 792 b 478 781 507 783 494 781 b 437 798 461 781 447 786 b 403 836 426 809 415 822 b 361 874 392 850 378 863 b 285 892 344 886 319 892 b 205 865 250 892 224 883 b 153 719 168 830 151 781 z "},"ö":{"ha":764,"x_min":0,"x_max":0,"o":"m 604 308 b 539 153 604 248 582 196 b 382 88 495 109 443 88 b 225 153 321 88 269 109 b 160 308 181 196 160 248 b 225 465 160 369 181 422 b 382 531 269 509 321 531 b 539 465 443 531 495 509 b 604 308 582 422 604 369 z m 701 308 b 608 534 701 396 670 472 b 382 628 545 597 470 628 b 156 534 294 628 219 597 b 63 308 94 472 63 396 b 156 83 63 220 94 145 b 382 -10 219 21 295 -10 b 608 83 469 -10 545 21 b 701 308 670 145 701 220 z m 554 824 b 510 842 542 836 527 842 b 466 824 492 842 478 836 b 449 780 454 812 449 797 b 466 736 449 763 454 748 b 510 718 478 724 492 718 b 554 736 527 718 542 724 b 572 780 566 748 572 763 b 554 824 572 797 566 812 z m 301 824 b 257 842 289 836 275 842 b 213 824 239 842 225 836 b 196 780 202 812 196 797 b 213 736 196 763 202 748 b 257 718 225 724 239 718 b 301 736 275 718 289 724 b 319 780 313 748 319 763 b 301 824 319 797 313 812 z "},"÷":{"ha":569,"x_min":0,"x_max":0,"o":"m 372 79 b 349 134 372 100 365 119 b 294 157 334 149 316 157 b 240 134 273 157 255 149 b 218 79 225 119 218 100 b 240 25 218 58 225 40 b 294 3 255 10 273 3 b 349 25 316 3 334 10 b 372 79 365 40 372 58 z m 518 269 l 518 349 l 53 349 l 53 269 z m 372 529 b 349 584 372 550 365 569 b 294 607 334 599 316 607 b 240 584 273 607 255 599 b 218 529 225 569 218 550 b 240 475 218 508 225 490 b 294 453 255 460 273 453 b 349 475 316 453 334 460 b 372 529 365 490 372 508 z "},"ø":{"ha":764,"x_min":0,"x_max":0,"o":"m 701 308 b 634 505 701 383 679 448 l 703 574 l 649 628 l 580 559 b 382 628 523 605 457 628 b 156 534 294 628 219 597 b 63 308 94 472 63 396 b 132 110 63 232 86 166 l 60 38 l 114 -17 l 187 56 b 382 -10 243 12 308 -10 b 608 83 469 -10 545 21 b 701 308 670 145 701 220 z m 256 126 l 565 435 b 604 308 591 398 604 356 b 539 153 604 248 582 196 b 382 88 495 109 443 88 b 256 126 335 88 293 100 z m 202 180 b 160 308 174 217 160 260 b 225 465 160 369 181 422 b 382 531 269 509 321 531 b 511 490 430 531 473 517 z "},"ù":{"ha":707,"x_min":0,"x_max":0,"o":"m 526 105 l 526 0 l 624 0 l 624 611 l 526 611 l 526 356 b 479 156 526 271 511 204 b 318 85 448 109 394 85 b 228 127 276 85 247 99 b 201 229 210 155 201 189 l 201 611 l 104 611 l 104 229 b 162 55 104 158 123 100 b 322 -12 200 10 254 -12 b 526 105 413 -12 481 27 z m 407 718 l 282 917 l 176 917 l 329 718 z "},"ú":{"ha":707,"x_min":0,"x_max":0,"o":"m 526 105 l 526 0 l 624 0 l 624 611 l 526 611 l 526 356 b 479 156 526 271 511 204 b 318 85 448 109 394 85 b 228 127 276 85 247 99 b 201 229 210 155 201 189 l 201 611 l 104 611 l 104 229 b 162 55 104 158 123 100 b 322 -12 200 10 254 -12 b 526 105 413 -12 481 27 z m 563 946 l 443 946 l 332 747 l 410 747 z "},"û":{"ha":707,"x_min":0,"x_max":0,"o":"m 526 105 l 526 0 l 624 0 l 624 611 l 526 611 l 526 356 b 479 156 526 271 511 204 b 318 85 448 109 394 85 b 228 127 276 85 247 99 b 201 229 210 155 201 189 l 201 611 l 104 611 l 104 229 b 162 55 104 158 123 100 b 322 -12 200 10 254 -12 b 526 105 413 -12 481 27 z m 354 865 l 454 718 l 553 718 l 400 917 l 308 917 l 156 718 l 254 718 z "},"ü":{"ha":707,"x_min":0,"x_max":0,"o":"m 526 105 l 526 0 l 624 0 l 624 611 l 526 611 l 526 356 b 479 156 526 271 511 204 b 318 85 448 109 394 85 b 228 127 276 85 247 99 b 201 229 210 155 201 189 l 201 611 l 104 611 l 104 229 b 162 55 104 158 123 100 b 322 -12 200 10 254 -12 b 526 105 413 -12 481 27 z m 526 824 b 482 842 514 836 500 842 b 438 824 464 842 450 836 b 421 780 427 812 421 797 b 438 736 421 763 427 748 b 482 718 450 724 464 718 b 526 736 500 718 514 724 b 544 780 538 748 544 763 b 526 824 544 797 538 812 z m 274 824 b 229 842 262 836 247 842 b 185 824 212 842 197 836 b 168 780 174 812 168 797 b 185 736 168 763 174 748 b 229 718 197 724 212 718 b 274 736 247 718 262 724 b 292 780 286 748 292 763 b 274 824 292 797 286 812 z "},"ý":{"ha":590,"x_min":0,"x_max":0,"o":"m 182 -347 l 604 611 l 496 611 l 321 201 l 125 611 l 14 611 l 269 100 l 64 -347 z m 511 946 l 392 946 l 281 747 l 358 747 z "},"þ":{"ha":792,"x_min":0,"x_max":0,"o":"m 201 -347 l 201 104 b 219 83 207 97 213 90 b 432 -14 278 19 350 -14 b 645 83 516 -14 587 19 b 729 306 701 146 729 220 b 645 528 729 391 701 465 b 432 625 587 593 516 625 b 219 528 348 625 277 593 b 201 507 213 521 207 514 l 201 1042 l 104 1042 l 104 -347 z m 632 306 b 570 150 632 246 611 194 b 417 83 529 106 478 83 b 263 150 356 83 305 106 b 201 306 222 194 201 246 b 263 461 201 365 222 417 b 417 528 305 506 356 528 b 570 461 478 528 529 506 b 632 306 611 417 632 365 z "},"ÿ":{"ha":590,"x_min":0,"x_max":0,"o":"m 182 -347 l 604 611 l 496 611 l 321 201 l 125 611 l 14 611 l 269 100 l 64 -347 z m 468 824 b 424 842 456 836 441 842 b 380 824 406 842 391 836 b 362 780 368 812 362 797 b 380 736 362 763 368 748 b 424 718 391 724 406 718 b 468 736 441 718 456 724 b 486 780 480 748 486 763 b 468 824 486 797 480 812 z m 215 824 b 171 842 203 836 188 842 b 127 824 153 842 139 836 b 110 780 116 812 110 797 b 127 736 110 763 116 748 b 171 718 139 724 153 718 b 215 736 188 718 203 724 b 233 780 227 748 233 763 b 215 824 233 797 227 812 z "},"ı":{"ha":318,"x_min":0,"x_max":0,"o":"m 208 0 l 208 611 l 111 611 l 111 0 z "},"Œ":{"ha":1386,"x_min":0,"x_max":0,"o":"m 199 472 b 313 742 199 580 237 670 b 588 847 387 812 478 847 l 740 847 l 740 97 l 588 97 b 313 203 478 97 387 132 b 199 472 237 275 199 365 z m 104 472 b 142 283 104 404 117 341 b 246 133 168 225 202 175 b 400 35 289 92 341 59 b 590 0 459 12 523 0 l 838 0 l 838 1 l 1301 1 l 1301 91 l 838 91 l 838 427 l 1288 427 l 1288 519 l 838 519 l 838 855 l 1301 855 l 1301 945 l 590 944 b 400 909 523 944 459 933 b 246 811 341 885 289 853 b 142 662 202 769 168 720 b 104 472 117 604 104 541 z "},"œ":{"ha":1304,"x_min":0,"x_max":0,"o":"m 604 308 b 539 153 604 248 582 196 b 382 88 495 109 443 88 b 225 153 321 88 269 109 b 160 308 181 196 160 248 b 225 465 160 369 181 422 b 382 531 269 509 321 531 b 539 465 443 531 495 509 b 604 308 582 422 604 369 z m 1140 358 l 707 358 b 785 483 718 409 744 451 b 924 531 825 515 872 531 b 1062 483 976 531 1022 515 b 1140 358 1101 451 1127 409 z m 653 139 b 769 29 682 92 721 55 b 929 -10 816 3 870 -10 b 1097 41 988 -10 1044 7 b 1215 179 1150 75 1189 121 l 1104 179 b 1024 112 1083 150 1056 128 b 924 87 992 96 959 87 b 781 139 871 87 823 105 b 704 268 739 173 714 216 l 1242 268 l 1242 319 b 1147 537 1242 404 1210 477 b 1044 603 1117 565 1083 587 b 913 628 1006 620 962 628 b 769 589 865 628 816 615 b 653 479 721 563 682 526 b 537 588 623 525 584 562 b 382 628 489 615 438 628 b 156 534 294 628 219 597 b 63 308 94 472 63 396 b 156 83 63 220 94 145 b 258 15 185 55 219 32 b 390 -10 296 -1 340 -10 b 537 30 440 -10 489 3 b 653 139 584 56 623 93 z "},"ˆ":{"ha":425,"x_min":0,"x_max":0,"o":"m 213 1189 l 313 1042 l 411 1042 l 258 1240 l 167 1240 l 14 1042 l 113 1042 z "},"ˇ":{"ha":1472,"x_min":0,"x_max":0,"o":""},"˚":{"ha":371,"x_min":0,"x_max":0,"o":"m 142 1117 b 185 1133 154 1128 168 1133 b 227 1117 201 1133 216 1128 b 244 1077 239 1106 244 1092 b 228 1038 244 1062 239 1049 b 185 1021 217 1026 203 1021 b 142 1038 168 1021 154 1026 b 125 1077 131 1049 125 1062 b 142 1117 125 1092 131 1106 z m 49 1076 b 90 983 49 1039 62 1008 b 185 944 117 957 149 944 b 280 982 222 944 254 957 b 321 1076 307 1008 321 1040 b 280 1172 321 1115 307 1146 b 185 1210 252 1197 221 1210 b 90 1171 148 1210 117 1197 b 49 1076 62 1145 49 1113 z "},"˜":{"ha":582,"x_min":0,"x_max":0,"o":"m 63 1014 l 131 1014 b 133 1061 129 1031 130 1047 b 190 1110 141 1094 160 1110 b 235 1092 209 1110 224 1104 b 269 1053 246 1081 257 1068 b 311 1015 280 1039 294 1026 b 390 997 328 1003 354 997 b 472 1024 425 997 453 1006 b 518 1171 509 1060 525 1109 l 450 1171 b 443 1102 450 1136 448 1113 b 425 1082 439 1093 433 1087 b 388 1075 417 1077 404 1075 b 347 1092 371 1075 357 1081 b 313 1131 336 1104 325 1117 b 271 1169 302 1144 288 1157 b 194 1186 254 1180 229 1186 b 115 1159 160 1186 134 1177 b 63 1014 78 1124 61 1076 z "},"–":{"ha":542,"x_min":0,"x_max":0,"o":"m 511 250 l 511 331 l 32 331 l 32 250 z "},"—":{"ha":957,"x_min":0,"x_max":0,"o":"m 926 250 l 926 331 l 32 331 l 32 250 z "},"‘":{"ha":283,"x_min":0,"x_max":0,"o":"m 35 682 l 168 682 l 249 1042 l 190 1042 z "},"’":{"ha":283,"x_min":0,"x_max":0,"o":"m 249 1042 l 115 1042 l 35 682 l 93 682 z "},"“":{"ha":501,"x_min":0,"x_max":0,"o":"m 253 682 l 386 682 l 467 1042 l 408 1042 z m 35 682 l 168 682 l 249 1042 l 190 1042 z "},"”":{"ha":501,"x_min":0,"x_max":0,"o":"m 249 1042 l 115 1042 l 35 682 l 93 682 z m 467 1042 l 333 1042 l 253 682 l 311 682 z "},"•":{"ha":417,"x_min":0,"x_max":0,"o":"m 367 475 b 320 587 367 519 351 556 b 208 633 289 618 252 633 b 97 587 165 633 128 618 b 50 475 66 556 50 519 b 97 363 50 431 66 394 b 208 317 128 332 165 317 b 320 363 252 317 289 332 b 367 475 351 394 367 431 z "},"…":{"ha":926,"x_min":0,"x_max":0,"o":"m 185 -14 b 242 9 206 -14 225 -6 b 267 65 258 24 267 43 b 242 120 267 86 259 105 b 185 143 226 135 207 143 b 128 119 163 143 144 135 b 104 64 112 104 104 85 b 128 9 104 43 112 24 b 185 -14 145 -6 163 -14 z m 463 -14 b 519 9 484 -14 503 -6 b 544 65 536 24 544 43 b 520 120 544 86 536 105 b 463 143 504 135 485 143 b 406 119 440 143 421 135 b 382 64 390 104 382 85 b 406 9 382 43 390 24 b 463 -14 422 -6 441 -14 z m 740 -14 b 797 9 762 -14 781 -6 b 822 65 814 24 822 43 b 798 120 822 86 814 105 b 740 143 782 135 763 143 b 683 119 718 143 699 135 b 660 64 668 104 660 85 b 684 9 660 43 668 24 b 740 -14 700 -6 719 -14 z "},"⁄":{"ha":617,"x_min":0,"x_max":0,"o":"m 554 943 l 460 943 l 63 0 l 156 0 z "},"™":{"ha":1082,"x_min":0,"x_max":0,"o":"m 401 878 l 401 944 l 33 944 l 33 878 l 178 878 l 178 469 l 256 469 l 256 878 z m 1049 469 l 956 944 l 850 944 l 731 557 l 611 944 l 506 944 l 413 469 l 501 469 l 571 868 l 689 469 l 772 469 l 889 868 l 960 469 z "},"−":{"ha":500,"x_min":0,"x_max":0,"o":"m 449 268 l 449 347 l 53 347 l 53 268 z "},"":{"ha":1286,"x_min":0,"x_max":0,"o":"m 394 343 l 394 707 b 388 725 394 714 392 720 b 370 732 383 730 377 732 b 353 725 363 732 357 730 b 346 707 348 720 346 714 l 346 343 b 353 326 346 336 348 330 b 369 319 357 322 363 319 b 394 343 386 319 394 327 z m 551 549 l 461 549 b 438 525 445 549 438 541 b 461 501 438 509 445 501 l 551 501 b 576 525 568 501 576 509 b 551 549 576 541 568 549 z m 643 732 b 619 707 627 732 619 724 l 619 343 b 643 319 619 327 627 319 b 667 343 659 319 667 327 l 667 707 b 643 732 667 724 659 732 z m 921 731 l 918 731 b 900 724 909 731 903 728 l 717 542 b 710 525 712 537 710 531 b 717 508 710 519 712 513 l 900 326 b 917 319 905 322 910 319 b 933 326 923 319 929 322 b 940 343 938 331 940 337 b 933 360 940 350 938 355 l 768 525 l 933 690 b 940 707 938 695 940 700 b 929 728 940 713 937 720 z m 1119 525 b 1082 340 1119 459 1107 397 b 980 188 1057 282 1023 231 b 828 86 937 145 886 111 b 643 49 771 61 709 49 b 458 86 577 49 516 61 b 306 188 400 111 349 145 b 204 340 263 231 229 282 b 167 525 179 397 167 459 b 204 710 167 591 179 653 b 306 862 229 768 263 819 b 458 964 349 905 400 939 b 643 1001 516 989 577 1001 b 828 964 709 1001 771 989 b 980 862 886 939 937 905 b 1082 710 1023 819 1057 768 b 1119 525 1107 653 1119 591 z m 1168 525 b 1127 729 1168 597 1154 665 b 1015 897 1100 793 1062 849 b 847 1009 967 944 911 982 b 643 1050 783 1036 715 1050 b 439 1009 571 1050 503 1036 b 272 897 375 982 319 944 b 159 729 224 849 186 793 b 118 525 132 665 118 597 b 159 321 118 453 132 385 b 272 153 186 257 224 201 b 439 41 319 106 375 68 b 643 0 503 14 571 0 b 847 41 715 0 783 14 b 1015 153 911 68 967 106 b 1127 321 1062 201 1100 257 b 1168 525 1154 385 1168 453 z "}}}
